%TF.GenerationSoftware,KiCad,Pcbnew,6.0.11-2627ca5db0~126~ubuntu20.04.1*%
%TF.CreationDate,2023-02-12T02:05:53+01:00*%
%TF.ProjectId,HeadTracker_LoRa,48656164-5472-4616-936b-65725f4c6f52,rev?*%
%TF.SameCoordinates,Original*%
%TF.FileFunction,Copper,L2,Bot*%
%TF.FilePolarity,Positive*%
%FSLAX46Y46*%
G04 Gerber Fmt 4.6, Leading zero omitted, Abs format (unit mm)*
G04 Created by KiCad (PCBNEW 6.0.11-2627ca5db0~126~ubuntu20.04.1) date 2023-02-12 02:05:53*
%MOMM*%
%LPD*%
G01*
G04 APERTURE LIST*
%TA.AperFunction,ComponentPad*%
%ADD10C,3.000000*%
%TD*%
%TA.AperFunction,ComponentPad*%
%ADD11R,1.700000X1.700000*%
%TD*%
%TA.AperFunction,ComponentPad*%
%ADD12O,1.700000X1.700000*%
%TD*%
%TA.AperFunction,ComponentPad*%
%ADD13O,0.800000X1.400000*%
%TD*%
%TA.AperFunction,ComponentPad*%
%ADD14C,0.650000*%
%TD*%
G04 APERTURE END LIST*
D10*
%TO.P,U$31,1*%
%TO.N,N/C*%
X177800000Y-38100000D03*
%TD*%
%TO.P,U$3,1*%
%TO.N,N/C*%
X203225000Y-165100000D03*
%TD*%
%TO.P,U$2,1*%
%TO.N,N/C*%
X127000000Y-38100000D03*
%TD*%
%TO.P,U$1,1*%
%TO.N,N/C*%
X114300000Y-165100000D03*
%TD*%
D11*
%TO.P,JP3,1,Pin_1*%
%TO.N,VBAT*%
X165528684Y-109299404D03*
D12*
%TO.P,JP3,2,Pin_2*%
%TO.N,/EN*%
X165528684Y-111839404D03*
%TO.P,JP3,3,Pin_3*%
%TO.N,VBUS*%
X165528684Y-114379404D03*
%TO.P,JP3,4,Pin_4*%
%TO.N,/13*%
X165528684Y-116919404D03*
%TO.P,JP3,5,Pin_5*%
%TO.N,/12*%
X165528684Y-119459404D03*
%TO.P,JP3,6,Pin_6*%
%TO.N,/11*%
X165528684Y-121999404D03*
%TO.P,JP3,7,Pin_7*%
%TO.N,/10*%
X165528684Y-124539404D03*
%TO.P,JP3,8,Pin_8*%
%TO.N,/9*%
X165528684Y-127079404D03*
%TO.P,JP3,9,Pin_9*%
%TO.N,/6*%
X165528684Y-129619404D03*
%TO.P,JP3,10,Pin_10*%
%TO.N,/5*%
X165528684Y-132159404D03*
%TO.P,JP3,11,Pin_11*%
%TO.N,/3*%
X165528684Y-134699404D03*
%TO.P,JP3,12,Pin_12*%
%TO.N,/2*%
X165528684Y-137239404D03*
%TD*%
D11*
%TO.P,JP2,1,Pin_1*%
%TO.N,/DIO1*%
X136200497Y-109250000D03*
D12*
%TO.P,JP2,2,Pin_2*%
%TO.N,/1*%
X136200497Y-111790000D03*
%TO.P,JP2,3,Pin_3*%
%TO.N,/0*%
X136200497Y-114330000D03*
%TO.P,JP2,4,Pin_4*%
%TO.N,/MISO*%
X136200497Y-116870000D03*
%TO.P,JP2,5,Pin_5*%
%TO.N,/MOSI*%
X136200497Y-119410000D03*
%TO.P,JP2,6,Pin_6*%
%TO.N,/SCK*%
X136200497Y-121950000D03*
%TO.P,JP2,7,Pin_7*%
%TO.N,/A5*%
X136200497Y-124490000D03*
%TO.P,JP2,8,Pin_8*%
%TO.N,/A4*%
X136200497Y-127030000D03*
%TO.P,JP2,9,Pin_9*%
%TO.N,/A3*%
X136200497Y-129570000D03*
%TO.P,JP2,10,Pin_10*%
%TO.N,/A2*%
X136200497Y-132110000D03*
%TO.P,JP2,11,Pin_11*%
%TO.N,/A1*%
X136200497Y-134650000D03*
%TO.P,JP2,12,Pin_12*%
%TO.N,/A0*%
X136200497Y-137190000D03*
%TO.P,JP2,13,Pin_13*%
%TO.N,GND*%
X136200497Y-139730000D03*
%TO.P,JP2,14,Pin_14*%
%TO.N,/AREF*%
X136200497Y-142270000D03*
%TO.P,JP2,15,Pin_15*%
%TO.N,+3V3*%
X136200497Y-144810000D03*
%TO.P,JP2,16,Pin_16*%
%TO.N,/RST*%
X136200497Y-147350000D03*
%TD*%
D13*
%TO.P,J1,S1,SHIELD*%
%TO.N,unconnected-(J1-PadS1)*%
X156530000Y-41210000D03*
X148270000Y-41210000D03*
X147910000Y-35260000D03*
X156890000Y-35260000D03*
D14*
%TO.P,J1,B1,GND*%
%TO.N,GND*%
X149600000Y-41810000D03*
%TO.P,J1,B4,VBUS*%
%TO.N,VBUS*%
X151200000Y-41810000D03*
%TO.P,J1,B6,D+*%
%TO.N,Net-(J1-PadA6)*%
X152000000Y-41810000D03*
%TO.P,J1,B7,D-*%
%TO.N,Net-(J1-PadA7)*%
X152800000Y-41810000D03*
%TO.P,J1,B9,VBUS*%
%TO.N,VBUS*%
X153600000Y-41810000D03*
%TO.P,J1,B12,GND*%
%TO.N,GND*%
X155200000Y-41810000D03*
%TO.P,J1,B2*%
%TO.N,N/C*%
X150000000Y-41110000D03*
%TO.P,J1,B3*%
X150800000Y-41110000D03*
%TO.P,J1,B5,CC2*%
%TO.N,/CC2*%
X151600000Y-41110000D03*
%TO.P,J1,B8,SBU2*%
%TO.N,unconnected-(J1-PadB8)*%
X153200000Y-41110000D03*
%TO.P,J1,B10*%
%TO.N,N/C*%
X154000000Y-41110000D03*
%TO.P,J1,B11*%
X154800000Y-41110000D03*
%TD*%
M02*
