%TF.GenerationSoftware,KiCad,Pcbnew,6.0.11-2627ca5db0~126~ubuntu20.04.1*%
%TF.CreationDate,2023-02-12T02:05:53+01:00*%
%TF.ProjectId,HeadTracker_LoRa,48656164-5472-4616-936b-65725f4c6f52,rev?*%
%TF.SameCoordinates,Original*%
%TF.FileFunction,Soldermask,Top*%
%TF.FilePolarity,Negative*%
%FSLAX46Y46*%
G04 Gerber Fmt 4.6, Leading zero omitted, Abs format (unit mm)*
G04 Created by KiCad (PCBNEW 6.0.11-2627ca5db0~126~ubuntu20.04.1) date 2023-02-12 02:05:53*
%MOMM*%
%LPD*%
G01*
G04 APERTURE LIST*
G04 Aperture macros list*
%AMRoundRect*
0 Rectangle with rounded corners*
0 $1 Rounding radius*
0 $2 $3 $4 $5 $6 $7 $8 $9 X,Y pos of 4 corners*
0 Add a 4 corners polygon primitive as box body*
4,1,4,$2,$3,$4,$5,$6,$7,$8,$9,$2,$3,0*
0 Add four circle primitives for the rounded corners*
1,1,$1+$1,$2,$3*
1,1,$1+$1,$4,$5*
1,1,$1+$1,$6,$7*
1,1,$1+$1,$8,$9*
0 Add four rect primitives between the rounded corners*
20,1,$1+$1,$2,$3,$4,$5,0*
20,1,$1+$1,$4,$5,$6,$7,0*
20,1,$1+$1,$6,$7,$8,$9,0*
20,1,$1+$1,$8,$9,$2,$3,0*%
G04 Aperture macros list end*
%ADD10R,3.800000X1.400000*%
%ADD11R,1.050000X2.200000*%
%ADD12R,1.000000X1.000000*%
%ADD13RoundRect,0.250000X2.500000X-0.250000X2.500000X0.250000X-2.500000X0.250000X-2.500000X-0.250000X0*%
%ADD14RoundRect,0.250000X1.250000X-0.550000X1.250000X0.550000X-1.250000X0.550000X-1.250000X-0.550000X0*%
%ADD15R,1.000000X2.500000*%
%ADD16R,1.060000X0.650000*%
%ADD17RoundRect,0.062500X0.475000X0.062500X-0.475000X0.062500X-0.475000X-0.062500X0.475000X-0.062500X0*%
%ADD18RoundRect,0.062500X0.062500X0.475000X-0.062500X0.475000X-0.062500X-0.475000X0.062500X-0.475000X0*%
%ADD19R,5.200000X5.200000*%
%ADD20C,3.000000*%
%ADD21R,2.500000X2.500000*%
%ADD22R,1.400000X1.600000*%
%ADD23RoundRect,0.250000X-0.262500X-0.450000X0.262500X-0.450000X0.262500X0.450000X-0.262500X0.450000X0*%
%ADD24RoundRect,0.243750X0.456250X-0.243750X0.456250X0.243750X-0.456250X0.243750X-0.456250X-0.243750X0*%
%ADD25R,1.700000X1.700000*%
%ADD26O,1.700000X1.700000*%
%ADD27O,0.800000X1.400000*%
%ADD28R,0.300000X0.700000*%
%ADD29O,0.950000X0.650000*%
%ADD30C,0.650000*%
%ADD31RoundRect,0.250000X-0.287500X-0.275000X0.287500X-0.275000X0.287500X0.275000X-0.287500X0.275000X0*%
%ADD32RoundRect,0.250000X0.275000X-0.287500X0.275000X0.287500X-0.275000X0.287500X-0.275000X-0.287500X0*%
G04 APERTURE END LIST*
D10*
%TO.C,Y1*%
X147722781Y-116847864D03*
X147722781Y-114347864D03*
X147722781Y-111847864D03*
%TD*%
D11*
%TO.C,X2*%
X150875000Y-173600000D03*
X153825000Y-173600000D03*
D12*
X152350000Y-172100000D03*
X152350000Y-175100000D03*
%TD*%
D13*
%TO.C,X1*%
X164100000Y-102600000D03*
X164100000Y-100600000D03*
D14*
X161850000Y-105000000D03*
X161850000Y-98200000D03*
%TD*%
D15*
%TO.C,U4*%
X159400000Y-161500000D03*
X157400000Y-161500000D03*
X155400000Y-161500000D03*
X153400000Y-161500000D03*
X151400000Y-161500000D03*
X149400000Y-161500000D03*
X147400000Y-161500000D03*
X145400000Y-161500000D03*
X145400000Y-143300000D03*
X147400000Y-143300000D03*
X149400000Y-143300000D03*
X151400000Y-143300000D03*
X153400000Y-143300000D03*
X155400000Y-143300000D03*
X157400000Y-143300000D03*
X159400000Y-143300000D03*
%TD*%
D16*
%TO.C,U3*%
X125900000Y-62550000D03*
X125900000Y-63500000D03*
X125900000Y-64450000D03*
X128100000Y-64450000D03*
X128100000Y-62550000D03*
%TD*%
%TO.C,U2*%
X152965000Y-49850000D03*
X152965000Y-50800000D03*
X152965000Y-51750000D03*
X155165000Y-51750000D03*
X155165000Y-49850000D03*
%TD*%
D17*
%TO.C,U1*%
X156237500Y-129500000D03*
X156237500Y-129000000D03*
X156237500Y-128500000D03*
X156237500Y-128000000D03*
X156237500Y-127500000D03*
X156237500Y-127000000D03*
X156237500Y-126500000D03*
X156237500Y-126000000D03*
X156237500Y-125500000D03*
X156237500Y-125000000D03*
X156237500Y-124500000D03*
D18*
X155400000Y-123662500D03*
X154900000Y-123662500D03*
X154400000Y-123662500D03*
X153900000Y-123662500D03*
X153400000Y-123662500D03*
X152900000Y-123662500D03*
X152400000Y-123662500D03*
X151900000Y-123662500D03*
X151400000Y-123662500D03*
X150900000Y-123662500D03*
X150400000Y-123662500D03*
D17*
X149562500Y-124500000D03*
X149562500Y-125000000D03*
X149562500Y-125500000D03*
X149562500Y-126000000D03*
X149562500Y-126500000D03*
X149562500Y-127000000D03*
X149562500Y-127500000D03*
X149562500Y-128000000D03*
X149562500Y-128500000D03*
X149562500Y-129000000D03*
X149562500Y-129500000D03*
D18*
X150400000Y-130337500D03*
X150900000Y-130337500D03*
X151400000Y-130337500D03*
X151900000Y-130337500D03*
X152400000Y-130337500D03*
X152900000Y-130337500D03*
X153400000Y-130337500D03*
X153900000Y-130337500D03*
X154400000Y-130337500D03*
X154900000Y-130337500D03*
X155400000Y-130337500D03*
D19*
X152900000Y-127000000D03*
%TD*%
D20*
%TO.C,U$31*%
X177800000Y-38100000D03*
%TD*%
%TO.C,U$3*%
X203225000Y-165100000D03*
%TD*%
%TO.C,U$2*%
X127000000Y-38100000D03*
%TD*%
%TO.C,U$1*%
X114300000Y-165100000D03*
%TD*%
D21*
%TO.C,TP1*%
X145273360Y-173940443D03*
%TD*%
D22*
%TO.C,SW1*%
X142920000Y-48570000D03*
X142920000Y-55770000D03*
X145920000Y-48570000D03*
X145920000Y-55770000D03*
%TD*%
D23*
%TO.C,R10*%
X202287500Y-89525000D03*
X204112500Y-89525000D03*
%TD*%
%TO.C,R9*%
X189587500Y-50800000D03*
X191412500Y-50800000D03*
%TD*%
%TO.C,R8*%
X164308372Y-50800000D03*
X166133372Y-50800000D03*
%TD*%
%TO.C,R7*%
X151487500Y-101600000D03*
X153312500Y-101600000D03*
%TD*%
%TO.C,R6*%
X100687500Y-63500000D03*
X102512500Y-63500000D03*
%TD*%
%TO.C,R5*%
X126087500Y-100650000D03*
X127912500Y-100650000D03*
%TD*%
%TO.C,R4*%
X138787500Y-101600000D03*
X140612500Y-101600000D03*
%TD*%
%TO.C,R3*%
X113387500Y-50800000D03*
X115212500Y-50800000D03*
%TD*%
%TO.C,R2*%
X126087500Y-50800000D03*
X127912500Y-50800000D03*
%TD*%
%TO.C,R1*%
X174062500Y-58900000D03*
X175887500Y-58900000D03*
%TD*%
%TO.C,R0*%
X202287500Y-63500000D03*
X204112500Y-63500000D03*
%TD*%
D24*
%TO.C,L1*%
X161470000Y-38990000D03*
X161470000Y-37115000D03*
%TD*%
D25*
%TO.C,JP3*%
X165528684Y-109299404D03*
D26*
X165528684Y-111839404D03*
X165528684Y-114379404D03*
X165528684Y-116919404D03*
X165528684Y-119459404D03*
X165528684Y-121999404D03*
X165528684Y-124539404D03*
X165528684Y-127079404D03*
X165528684Y-129619404D03*
X165528684Y-132159404D03*
X165528684Y-134699404D03*
X165528684Y-137239404D03*
%TD*%
D25*
%TO.C,JP2*%
X136200497Y-109250000D03*
D26*
X136200497Y-111790000D03*
X136200497Y-114330000D03*
X136200497Y-116870000D03*
X136200497Y-119410000D03*
X136200497Y-121950000D03*
X136200497Y-124490000D03*
X136200497Y-127030000D03*
X136200497Y-129570000D03*
X136200497Y-132110000D03*
X136200497Y-134650000D03*
X136200497Y-137190000D03*
X136200497Y-139730000D03*
X136200497Y-142270000D03*
X136200497Y-144810000D03*
X136200497Y-147350000D03*
%TD*%
D27*
%TO.C,J1*%
X156530000Y-41210000D03*
D28*
X155150000Y-43120000D03*
X154650000Y-43120000D03*
X154150000Y-43120000D03*
X153650000Y-43120000D03*
X153150000Y-43120000D03*
X152650000Y-43120000D03*
X152150000Y-43120000D03*
X149650000Y-43120000D03*
X150650000Y-43120000D03*
X151150000Y-43120000D03*
X151650000Y-43120000D03*
X150150000Y-43120000D03*
D27*
X148270000Y-41210000D03*
X147910000Y-35260000D03*
X156890000Y-35260000D03*
D29*
X148800000Y-42460000D03*
D30*
X156000000Y-42460000D03*
X149600000Y-41810000D03*
X151200000Y-41810000D03*
X152000000Y-41810000D03*
X152800000Y-41810000D03*
X153600000Y-41810000D03*
X155200000Y-41810000D03*
X150000000Y-41110000D03*
X150800000Y-41110000D03*
X151600000Y-41110000D03*
X153200000Y-41110000D03*
X154000000Y-41110000D03*
X154800000Y-41110000D03*
%TD*%
D24*
%TO.C,D4*%
X114300000Y-76987500D03*
X114300000Y-75112500D03*
%TD*%
%TO.C,CHG1*%
X142810000Y-38887500D03*
X142810000Y-37012500D03*
%TD*%
D31*
%TO.C,C14*%
X100887500Y-76200000D03*
X102312500Y-76200000D03*
%TD*%
%TO.C,C9*%
X126287500Y-76200000D03*
X127712500Y-76200000D03*
%TD*%
%TO.C,C8*%
X113587500Y-88900000D03*
X115012500Y-88900000D03*
%TD*%
D32*
%TO.C,C7*%
X161002303Y-43475528D03*
X161002303Y-42050528D03*
%TD*%
D31*
%TO.C,C6*%
X126287500Y-88900000D03*
X127712500Y-88900000D03*
%TD*%
%TO.C,C3*%
X177087500Y-88560000D03*
X178512500Y-88560000D03*
%TD*%
%TO.C,C1*%
X113587500Y-101600000D03*
X115012500Y-101600000D03*
%TD*%
M02*
