%TF.GenerationSoftware,KiCad,Pcbnew,6.0.11-2627ca5db0~126~ubuntu20.04.1*%
%TF.CreationDate,2023-02-12T02:05:53+01:00*%
%TF.ProjectId,HeadTracker_LoRa,48656164-5472-4616-936b-65725f4c6f52,rev?*%
%TF.SameCoordinates,Original*%
%TF.FileFunction,Legend,Top*%
%TF.FilePolarity,Positive*%
%FSLAX46Y46*%
G04 Gerber Fmt 4.6, Leading zero omitted, Abs format (unit mm)*
G04 Created by KiCad (PCBNEW 6.0.11-2627ca5db0~126~ubuntu20.04.1) date 2023-02-12 02:05:53*
%MOMM*%
%LPD*%
G01*
G04 APERTURE LIST*
G04 Aperture macros list*
%AMRoundRect*
0 Rectangle with rounded corners*
0 $1 Rounding radius*
0 $2 $3 $4 $5 $6 $7 $8 $9 X,Y pos of 4 corners*
0 Add a 4 corners polygon primitive as box body*
4,1,4,$2,$3,$4,$5,$6,$7,$8,$9,$2,$3,0*
0 Add four circle primitives for the rounded corners*
1,1,$1+$1,$2,$3*
1,1,$1+$1,$4,$5*
1,1,$1+$1,$6,$7*
1,1,$1+$1,$8,$9*
0 Add four rect primitives between the rounded corners*
20,1,$1+$1,$2,$3,$4,$5,0*
20,1,$1+$1,$4,$5,$6,$7,0*
20,1,$1+$1,$6,$7,$8,$9,0*
20,1,$1+$1,$8,$9,$2,$3,0*%
G04 Aperture macros list end*
%ADD10C,0.150000*%
%ADD11C,0.120000*%
%ADD12C,0.100000*%
%ADD13R,3.800000X1.400000*%
%ADD14R,1.050000X2.200000*%
%ADD15R,1.000000X1.000000*%
%ADD16RoundRect,0.250000X2.500000X-0.250000X2.500000X0.250000X-2.500000X0.250000X-2.500000X-0.250000X0*%
%ADD17RoundRect,0.250000X1.250000X-0.550000X1.250000X0.550000X-1.250000X0.550000X-1.250000X-0.550000X0*%
%ADD18R,1.000000X2.500000*%
%ADD19R,1.060000X0.650000*%
%ADD20RoundRect,0.062500X0.475000X0.062500X-0.475000X0.062500X-0.475000X-0.062500X0.475000X-0.062500X0*%
%ADD21RoundRect,0.062500X0.062500X0.475000X-0.062500X0.475000X-0.062500X-0.475000X0.062500X-0.475000X0*%
%ADD22R,5.200000X5.200000*%
%ADD23C,3.000000*%
%ADD24R,2.500000X2.500000*%
%ADD25R,1.400000X1.600000*%
%ADD26RoundRect,0.250000X-0.262500X-0.450000X0.262500X-0.450000X0.262500X0.450000X-0.262500X0.450000X0*%
%ADD27RoundRect,0.243750X0.456250X-0.243750X0.456250X0.243750X-0.456250X0.243750X-0.456250X-0.243750X0*%
%ADD28R,1.700000X1.700000*%
%ADD29O,1.700000X1.700000*%
%ADD30O,0.800000X1.400000*%
%ADD31R,0.300000X0.700000*%
%ADD32O,0.950000X0.650000*%
%ADD33C,0.650000*%
%ADD34RoundRect,0.250000X-0.287500X-0.275000X0.287500X-0.275000X0.287500X0.275000X-0.287500X0.275000X0*%
%ADD35RoundRect,0.250000X0.275000X-0.287500X0.275000X0.287500X-0.275000X0.287500X-0.275000X-0.287500X0*%
G04 APERTURE END LIST*
D10*
%TO.C,Y1*%
X144798971Y-114824054D02*
X145275161Y-114824054D01*
X144275161Y-115157387D02*
X144798971Y-114824054D01*
X144275161Y-114490721D01*
X145275161Y-113633578D02*
X145275161Y-114205006D01*
X145275161Y-113919292D02*
X144275161Y-113919292D01*
X144418019Y-114014530D01*
X144513257Y-114109768D01*
X144560876Y-114205006D01*
%TO.C,X2*%
X151540476Y-176552380D02*
X152207142Y-177552380D01*
X152207142Y-176552380D02*
X151540476Y-177552380D01*
X152540476Y-176647619D02*
X152588095Y-176600000D01*
X152683333Y-176552380D01*
X152921428Y-176552380D01*
X153016666Y-176600000D01*
X153064285Y-176647619D01*
X153111904Y-176742857D01*
X153111904Y-176838095D01*
X153064285Y-176980952D01*
X152492857Y-177552380D01*
X153111904Y-177552380D01*
%TO.C,X1*%
X157602380Y-102409523D02*
X158602380Y-101742857D01*
X157602380Y-101742857D02*
X158602380Y-102409523D01*
X158602380Y-100838095D02*
X158602380Y-101409523D01*
X158602380Y-101123809D02*
X157602380Y-101123809D01*
X157745238Y-101219047D01*
X157840476Y-101314285D01*
X157888095Y-101409523D01*
%TO.C,U4*%
X160852380Y-145361904D02*
X161661904Y-145361904D01*
X161757142Y-145314285D01*
X161804761Y-145266666D01*
X161852380Y-145171428D01*
X161852380Y-144980952D01*
X161804761Y-144885714D01*
X161757142Y-144838095D01*
X161661904Y-144790476D01*
X160852380Y-144790476D01*
X161185714Y-143885714D02*
X161852380Y-143885714D01*
X160804761Y-144123809D02*
X161519047Y-144361904D01*
X161519047Y-143742857D01*
%TO.C,U3*%
X126238095Y-60052380D02*
X126238095Y-60861904D01*
X126285714Y-60957142D01*
X126333333Y-61004761D01*
X126428571Y-61052380D01*
X126619047Y-61052380D01*
X126714285Y-61004761D01*
X126761904Y-60957142D01*
X126809523Y-60861904D01*
X126809523Y-60052380D01*
X127190476Y-60052380D02*
X127809523Y-60052380D01*
X127476190Y-60433333D01*
X127619047Y-60433333D01*
X127714285Y-60480952D01*
X127761904Y-60528571D01*
X127809523Y-60623809D01*
X127809523Y-60861904D01*
X127761904Y-60957142D01*
X127714285Y-61004761D01*
X127619047Y-61052380D01*
X127333333Y-61052380D01*
X127238095Y-61004761D01*
X127190476Y-60957142D01*
%TO.C,U2*%
X153303095Y-47352380D02*
X153303095Y-48161904D01*
X153350714Y-48257142D01*
X153398333Y-48304761D01*
X153493571Y-48352380D01*
X153684047Y-48352380D01*
X153779285Y-48304761D01*
X153826904Y-48257142D01*
X153874523Y-48161904D01*
X153874523Y-47352380D01*
X154303095Y-47447619D02*
X154350714Y-47400000D01*
X154445952Y-47352380D01*
X154684047Y-47352380D01*
X154779285Y-47400000D01*
X154826904Y-47447619D01*
X154874523Y-47542857D01*
X154874523Y-47638095D01*
X154826904Y-47780952D01*
X154255476Y-48352380D01*
X154874523Y-48352380D01*
%TO.C,U1*%
X152138095Y-131272380D02*
X152138095Y-132081904D01*
X152185714Y-132177142D01*
X152233333Y-132224761D01*
X152328571Y-132272380D01*
X152519047Y-132272380D01*
X152614285Y-132224761D01*
X152661904Y-132177142D01*
X152709523Y-132081904D01*
X152709523Y-131272380D01*
X153709523Y-132272380D02*
X153138095Y-132272380D01*
X153423809Y-132272380D02*
X153423809Y-131272380D01*
X153328571Y-131415238D01*
X153233333Y-131510476D01*
X153138095Y-131558095D01*
%TO.C,U$31*%
X176085714Y-35054380D02*
X176085714Y-35863904D01*
X176133333Y-35959142D01*
X176180952Y-36006761D01*
X176276190Y-36054380D01*
X176466666Y-36054380D01*
X176561904Y-36006761D01*
X176609523Y-35959142D01*
X176657142Y-35863904D01*
X176657142Y-35054380D01*
X177085714Y-36006761D02*
X177228571Y-36054380D01*
X177466666Y-36054380D01*
X177561904Y-36006761D01*
X177609523Y-35959142D01*
X177657142Y-35863904D01*
X177657142Y-35768666D01*
X177609523Y-35673428D01*
X177561904Y-35625809D01*
X177466666Y-35578190D01*
X177276190Y-35530571D01*
X177180952Y-35482952D01*
X177133333Y-35435333D01*
X177085714Y-35340095D01*
X177085714Y-35244857D01*
X177133333Y-35149619D01*
X177180952Y-35102000D01*
X177276190Y-35054380D01*
X177514285Y-35054380D01*
X177657142Y-35102000D01*
X177371428Y-34911523D02*
X177371428Y-36197238D01*
X177990476Y-35054380D02*
X178609523Y-35054380D01*
X178276190Y-35435333D01*
X178419047Y-35435333D01*
X178514285Y-35482952D01*
X178561904Y-35530571D01*
X178609523Y-35625809D01*
X178609523Y-35863904D01*
X178561904Y-35959142D01*
X178514285Y-36006761D01*
X178419047Y-36054380D01*
X178133333Y-36054380D01*
X178038095Y-36006761D01*
X177990476Y-35959142D01*
X179561904Y-36054380D02*
X178990476Y-36054380D01*
X179276190Y-36054380D02*
X179276190Y-35054380D01*
X179180952Y-35197238D01*
X179085714Y-35292476D01*
X178990476Y-35340095D01*
%TO.C,U$3*%
X201986904Y-162054380D02*
X201986904Y-162863904D01*
X202034523Y-162959142D01*
X202082142Y-163006761D01*
X202177380Y-163054380D01*
X202367857Y-163054380D01*
X202463095Y-163006761D01*
X202510714Y-162959142D01*
X202558333Y-162863904D01*
X202558333Y-162054380D01*
X202986904Y-163006761D02*
X203129761Y-163054380D01*
X203367857Y-163054380D01*
X203463095Y-163006761D01*
X203510714Y-162959142D01*
X203558333Y-162863904D01*
X203558333Y-162768666D01*
X203510714Y-162673428D01*
X203463095Y-162625809D01*
X203367857Y-162578190D01*
X203177380Y-162530571D01*
X203082142Y-162482952D01*
X203034523Y-162435333D01*
X202986904Y-162340095D01*
X202986904Y-162244857D01*
X203034523Y-162149619D01*
X203082142Y-162102000D01*
X203177380Y-162054380D01*
X203415476Y-162054380D01*
X203558333Y-162102000D01*
X203272619Y-161911523D02*
X203272619Y-163197238D01*
X203891666Y-162054380D02*
X204510714Y-162054380D01*
X204177380Y-162435333D01*
X204320238Y-162435333D01*
X204415476Y-162482952D01*
X204463095Y-162530571D01*
X204510714Y-162625809D01*
X204510714Y-162863904D01*
X204463095Y-162959142D01*
X204415476Y-163006761D01*
X204320238Y-163054380D01*
X204034523Y-163054380D01*
X203939285Y-163006761D01*
X203891666Y-162959142D01*
%TO.C,U$2*%
X125761904Y-35054380D02*
X125761904Y-35863904D01*
X125809523Y-35959142D01*
X125857142Y-36006761D01*
X125952380Y-36054380D01*
X126142857Y-36054380D01*
X126238095Y-36006761D01*
X126285714Y-35959142D01*
X126333333Y-35863904D01*
X126333333Y-35054380D01*
X126761904Y-36006761D02*
X126904761Y-36054380D01*
X127142857Y-36054380D01*
X127238095Y-36006761D01*
X127285714Y-35959142D01*
X127333333Y-35863904D01*
X127333333Y-35768666D01*
X127285714Y-35673428D01*
X127238095Y-35625809D01*
X127142857Y-35578190D01*
X126952380Y-35530571D01*
X126857142Y-35482952D01*
X126809523Y-35435333D01*
X126761904Y-35340095D01*
X126761904Y-35244857D01*
X126809523Y-35149619D01*
X126857142Y-35102000D01*
X126952380Y-35054380D01*
X127190476Y-35054380D01*
X127333333Y-35102000D01*
X127047619Y-34911523D02*
X127047619Y-36197238D01*
X127714285Y-35149619D02*
X127761904Y-35102000D01*
X127857142Y-35054380D01*
X128095238Y-35054380D01*
X128190476Y-35102000D01*
X128238095Y-35149619D01*
X128285714Y-35244857D01*
X128285714Y-35340095D01*
X128238095Y-35482952D01*
X127666666Y-36054380D01*
X128285714Y-36054380D01*
%TO.C,U$1*%
X113061904Y-162054380D02*
X113061904Y-162863904D01*
X113109523Y-162959142D01*
X113157142Y-163006761D01*
X113252380Y-163054380D01*
X113442857Y-163054380D01*
X113538095Y-163006761D01*
X113585714Y-162959142D01*
X113633333Y-162863904D01*
X113633333Y-162054380D01*
X114061904Y-163006761D02*
X114204761Y-163054380D01*
X114442857Y-163054380D01*
X114538095Y-163006761D01*
X114585714Y-162959142D01*
X114633333Y-162863904D01*
X114633333Y-162768666D01*
X114585714Y-162673428D01*
X114538095Y-162625809D01*
X114442857Y-162578190D01*
X114252380Y-162530571D01*
X114157142Y-162482952D01*
X114109523Y-162435333D01*
X114061904Y-162340095D01*
X114061904Y-162244857D01*
X114109523Y-162149619D01*
X114157142Y-162102000D01*
X114252380Y-162054380D01*
X114490476Y-162054380D01*
X114633333Y-162102000D01*
X114347619Y-161911523D02*
X114347619Y-163197238D01*
X115585714Y-163054380D02*
X115014285Y-163054380D01*
X115300000Y-163054380D02*
X115300000Y-162054380D01*
X115204761Y-162197238D01*
X115109523Y-162292476D01*
X115014285Y-162340095D01*
%TO.C,TP1*%
X144011455Y-171244823D02*
X144582883Y-171244823D01*
X144297169Y-172244823D02*
X144297169Y-171244823D01*
X144916217Y-172244823D02*
X144916217Y-171244823D01*
X145297169Y-171244823D01*
X145392407Y-171292443D01*
X145440026Y-171340062D01*
X145487645Y-171435300D01*
X145487645Y-171578157D01*
X145440026Y-171673395D01*
X145392407Y-171721014D01*
X145297169Y-171768633D01*
X144916217Y-171768633D01*
X146440026Y-172244823D02*
X145868598Y-172244823D01*
X146154312Y-172244823D02*
X146154312Y-171244823D01*
X146059074Y-171387681D01*
X145963836Y-171482919D01*
X145868598Y-171530538D01*
%TO.C,SW1*%
X141624761Y-53503333D02*
X141672380Y-53360476D01*
X141672380Y-53122380D01*
X141624761Y-53027142D01*
X141577142Y-52979523D01*
X141481904Y-52931904D01*
X141386666Y-52931904D01*
X141291428Y-52979523D01*
X141243809Y-53027142D01*
X141196190Y-53122380D01*
X141148571Y-53312857D01*
X141100952Y-53408095D01*
X141053333Y-53455714D01*
X140958095Y-53503333D01*
X140862857Y-53503333D01*
X140767619Y-53455714D01*
X140720000Y-53408095D01*
X140672380Y-53312857D01*
X140672380Y-53074761D01*
X140720000Y-52931904D01*
X140672380Y-52598571D02*
X141672380Y-52360476D01*
X140958095Y-52170000D01*
X141672380Y-51979523D01*
X140672380Y-51741428D01*
X141672380Y-50836666D02*
X141672380Y-51408095D01*
X141672380Y-51122380D02*
X140672380Y-51122380D01*
X140815238Y-51217619D01*
X140910476Y-51312857D01*
X140958095Y-51408095D01*
%TO.C,R10*%
X202557142Y-88327380D02*
X202223809Y-87851190D01*
X201985714Y-88327380D02*
X201985714Y-87327380D01*
X202366666Y-87327380D01*
X202461904Y-87375000D01*
X202509523Y-87422619D01*
X202557142Y-87517857D01*
X202557142Y-87660714D01*
X202509523Y-87755952D01*
X202461904Y-87803571D01*
X202366666Y-87851190D01*
X201985714Y-87851190D01*
X203509523Y-88327380D02*
X202938095Y-88327380D01*
X203223809Y-88327380D02*
X203223809Y-87327380D01*
X203128571Y-87470238D01*
X203033333Y-87565476D01*
X202938095Y-87613095D01*
X204128571Y-87327380D02*
X204223809Y-87327380D01*
X204319047Y-87375000D01*
X204366666Y-87422619D01*
X204414285Y-87517857D01*
X204461904Y-87708333D01*
X204461904Y-87946428D01*
X204414285Y-88136904D01*
X204366666Y-88232142D01*
X204319047Y-88279761D01*
X204223809Y-88327380D01*
X204128571Y-88327380D01*
X204033333Y-88279761D01*
X203985714Y-88232142D01*
X203938095Y-88136904D01*
X203890476Y-87946428D01*
X203890476Y-87708333D01*
X203938095Y-87517857D01*
X203985714Y-87422619D01*
X204033333Y-87375000D01*
X204128571Y-87327380D01*
%TO.C,R9*%
X190333333Y-49602380D02*
X190000000Y-49126190D01*
X189761904Y-49602380D02*
X189761904Y-48602380D01*
X190142857Y-48602380D01*
X190238095Y-48650000D01*
X190285714Y-48697619D01*
X190333333Y-48792857D01*
X190333333Y-48935714D01*
X190285714Y-49030952D01*
X190238095Y-49078571D01*
X190142857Y-49126190D01*
X189761904Y-49126190D01*
X190809523Y-49602380D02*
X191000000Y-49602380D01*
X191095238Y-49554761D01*
X191142857Y-49507142D01*
X191238095Y-49364285D01*
X191285714Y-49173809D01*
X191285714Y-48792857D01*
X191238095Y-48697619D01*
X191190476Y-48650000D01*
X191095238Y-48602380D01*
X190904761Y-48602380D01*
X190809523Y-48650000D01*
X190761904Y-48697619D01*
X190714285Y-48792857D01*
X190714285Y-49030952D01*
X190761904Y-49126190D01*
X190809523Y-49173809D01*
X190904761Y-49221428D01*
X191095238Y-49221428D01*
X191190476Y-49173809D01*
X191238095Y-49126190D01*
X191285714Y-49030952D01*
%TO.C,R8*%
X165054205Y-49602380D02*
X164720872Y-49126190D01*
X164482776Y-49602380D02*
X164482776Y-48602380D01*
X164863729Y-48602380D01*
X164958967Y-48650000D01*
X165006586Y-48697619D01*
X165054205Y-48792857D01*
X165054205Y-48935714D01*
X165006586Y-49030952D01*
X164958967Y-49078571D01*
X164863729Y-49126190D01*
X164482776Y-49126190D01*
X165625633Y-49030952D02*
X165530395Y-48983333D01*
X165482776Y-48935714D01*
X165435157Y-48840476D01*
X165435157Y-48792857D01*
X165482776Y-48697619D01*
X165530395Y-48650000D01*
X165625633Y-48602380D01*
X165816110Y-48602380D01*
X165911348Y-48650000D01*
X165958967Y-48697619D01*
X166006586Y-48792857D01*
X166006586Y-48840476D01*
X165958967Y-48935714D01*
X165911348Y-48983333D01*
X165816110Y-49030952D01*
X165625633Y-49030952D01*
X165530395Y-49078571D01*
X165482776Y-49126190D01*
X165435157Y-49221428D01*
X165435157Y-49411904D01*
X165482776Y-49507142D01*
X165530395Y-49554761D01*
X165625633Y-49602380D01*
X165816110Y-49602380D01*
X165911348Y-49554761D01*
X165958967Y-49507142D01*
X166006586Y-49411904D01*
X166006586Y-49221428D01*
X165958967Y-49126190D01*
X165911348Y-49078571D01*
X165816110Y-49030952D01*
%TO.C,R7*%
X152233333Y-100402380D02*
X151900000Y-99926190D01*
X151661904Y-100402380D02*
X151661904Y-99402380D01*
X152042857Y-99402380D01*
X152138095Y-99450000D01*
X152185714Y-99497619D01*
X152233333Y-99592857D01*
X152233333Y-99735714D01*
X152185714Y-99830952D01*
X152138095Y-99878571D01*
X152042857Y-99926190D01*
X151661904Y-99926190D01*
X152566666Y-99402380D02*
X153233333Y-99402380D01*
X152804761Y-100402380D01*
%TO.C,R6*%
X101433333Y-62302380D02*
X101100000Y-61826190D01*
X100861904Y-62302380D02*
X100861904Y-61302380D01*
X101242857Y-61302380D01*
X101338095Y-61350000D01*
X101385714Y-61397619D01*
X101433333Y-61492857D01*
X101433333Y-61635714D01*
X101385714Y-61730952D01*
X101338095Y-61778571D01*
X101242857Y-61826190D01*
X100861904Y-61826190D01*
X102290476Y-61302380D02*
X102100000Y-61302380D01*
X102004761Y-61350000D01*
X101957142Y-61397619D01*
X101861904Y-61540476D01*
X101814285Y-61730952D01*
X101814285Y-62111904D01*
X101861904Y-62207142D01*
X101909523Y-62254761D01*
X102004761Y-62302380D01*
X102195238Y-62302380D01*
X102290476Y-62254761D01*
X102338095Y-62207142D01*
X102385714Y-62111904D01*
X102385714Y-61873809D01*
X102338095Y-61778571D01*
X102290476Y-61730952D01*
X102195238Y-61683333D01*
X102004761Y-61683333D01*
X101909523Y-61730952D01*
X101861904Y-61778571D01*
X101814285Y-61873809D01*
%TO.C,R5*%
X126833333Y-99452380D02*
X126500000Y-98976190D01*
X126261904Y-99452380D02*
X126261904Y-98452380D01*
X126642857Y-98452380D01*
X126738095Y-98500000D01*
X126785714Y-98547619D01*
X126833333Y-98642857D01*
X126833333Y-98785714D01*
X126785714Y-98880952D01*
X126738095Y-98928571D01*
X126642857Y-98976190D01*
X126261904Y-98976190D01*
X127738095Y-98452380D02*
X127261904Y-98452380D01*
X127214285Y-98928571D01*
X127261904Y-98880952D01*
X127357142Y-98833333D01*
X127595238Y-98833333D01*
X127690476Y-98880952D01*
X127738095Y-98928571D01*
X127785714Y-99023809D01*
X127785714Y-99261904D01*
X127738095Y-99357142D01*
X127690476Y-99404761D01*
X127595238Y-99452380D01*
X127357142Y-99452380D01*
X127261904Y-99404761D01*
X127214285Y-99357142D01*
%TO.C,R4*%
X139533333Y-100402380D02*
X139200000Y-99926190D01*
X138961904Y-100402380D02*
X138961904Y-99402380D01*
X139342857Y-99402380D01*
X139438095Y-99450000D01*
X139485714Y-99497619D01*
X139533333Y-99592857D01*
X139533333Y-99735714D01*
X139485714Y-99830952D01*
X139438095Y-99878571D01*
X139342857Y-99926190D01*
X138961904Y-99926190D01*
X140390476Y-99735714D02*
X140390476Y-100402380D01*
X140152380Y-99354761D02*
X139914285Y-100069047D01*
X140533333Y-100069047D01*
%TO.C,R3*%
X114133333Y-49602380D02*
X113800000Y-49126190D01*
X113561904Y-49602380D02*
X113561904Y-48602380D01*
X113942857Y-48602380D01*
X114038095Y-48650000D01*
X114085714Y-48697619D01*
X114133333Y-48792857D01*
X114133333Y-48935714D01*
X114085714Y-49030952D01*
X114038095Y-49078571D01*
X113942857Y-49126190D01*
X113561904Y-49126190D01*
X114466666Y-48602380D02*
X115085714Y-48602380D01*
X114752380Y-48983333D01*
X114895238Y-48983333D01*
X114990476Y-49030952D01*
X115038095Y-49078571D01*
X115085714Y-49173809D01*
X115085714Y-49411904D01*
X115038095Y-49507142D01*
X114990476Y-49554761D01*
X114895238Y-49602380D01*
X114609523Y-49602380D01*
X114514285Y-49554761D01*
X114466666Y-49507142D01*
%TO.C,R2*%
X126833333Y-49602380D02*
X126500000Y-49126190D01*
X126261904Y-49602380D02*
X126261904Y-48602380D01*
X126642857Y-48602380D01*
X126738095Y-48650000D01*
X126785714Y-48697619D01*
X126833333Y-48792857D01*
X126833333Y-48935714D01*
X126785714Y-49030952D01*
X126738095Y-49078571D01*
X126642857Y-49126190D01*
X126261904Y-49126190D01*
X127214285Y-48697619D02*
X127261904Y-48650000D01*
X127357142Y-48602380D01*
X127595238Y-48602380D01*
X127690476Y-48650000D01*
X127738095Y-48697619D01*
X127785714Y-48792857D01*
X127785714Y-48888095D01*
X127738095Y-49030952D01*
X127166666Y-49602380D01*
X127785714Y-49602380D01*
%TO.C,R1*%
X174808333Y-57702380D02*
X174475000Y-57226190D01*
X174236904Y-57702380D02*
X174236904Y-56702380D01*
X174617857Y-56702380D01*
X174713095Y-56750000D01*
X174760714Y-56797619D01*
X174808333Y-56892857D01*
X174808333Y-57035714D01*
X174760714Y-57130952D01*
X174713095Y-57178571D01*
X174617857Y-57226190D01*
X174236904Y-57226190D01*
X175760714Y-57702380D02*
X175189285Y-57702380D01*
X175475000Y-57702380D02*
X175475000Y-56702380D01*
X175379761Y-56845238D01*
X175284523Y-56940476D01*
X175189285Y-56988095D01*
%TO.C,R0*%
X203033333Y-62302380D02*
X202700000Y-61826190D01*
X202461904Y-62302380D02*
X202461904Y-61302380D01*
X202842857Y-61302380D01*
X202938095Y-61350000D01*
X202985714Y-61397619D01*
X203033333Y-61492857D01*
X203033333Y-61635714D01*
X202985714Y-61730952D01*
X202938095Y-61778571D01*
X202842857Y-61826190D01*
X202461904Y-61826190D01*
X203652380Y-61302380D02*
X203747619Y-61302380D01*
X203842857Y-61350000D01*
X203890476Y-61397619D01*
X203938095Y-61492857D01*
X203985714Y-61683333D01*
X203985714Y-61921428D01*
X203938095Y-62111904D01*
X203890476Y-62207142D01*
X203842857Y-62254761D01*
X203747619Y-62302380D01*
X203652380Y-62302380D01*
X203557142Y-62254761D01*
X203509523Y-62207142D01*
X203461904Y-62111904D01*
X203414285Y-61921428D01*
X203414285Y-61683333D01*
X203461904Y-61492857D01*
X203509523Y-61397619D01*
X203557142Y-61350000D01*
X203652380Y-61302380D01*
%TO.C,L1*%
X160272380Y-38219166D02*
X160272380Y-38695357D01*
X159272380Y-38695357D01*
X160272380Y-37362023D02*
X160272380Y-37933452D01*
X160272380Y-37647738D02*
X159272380Y-37647738D01*
X159415238Y-37742976D01*
X159510476Y-37838214D01*
X159558095Y-37933452D01*
%TO.C,JP3*%
X164695350Y-105981784D02*
X164695350Y-106696070D01*
X164647731Y-106838927D01*
X164552493Y-106934165D01*
X164409636Y-106981784D01*
X164314398Y-106981784D01*
X165171541Y-106981784D02*
X165171541Y-105981784D01*
X165552493Y-105981784D01*
X165647731Y-106029404D01*
X165695350Y-106077023D01*
X165742969Y-106172261D01*
X165742969Y-106315118D01*
X165695350Y-106410356D01*
X165647731Y-106457975D01*
X165552493Y-106505594D01*
X165171541Y-106505594D01*
X166076303Y-105981784D02*
X166695350Y-105981784D01*
X166362017Y-106362737D01*
X166504874Y-106362737D01*
X166600112Y-106410356D01*
X166647731Y-106457975D01*
X166695350Y-106553213D01*
X166695350Y-106791308D01*
X166647731Y-106886546D01*
X166600112Y-106934165D01*
X166504874Y-106981784D01*
X166219160Y-106981784D01*
X166123922Y-106934165D01*
X166076303Y-106886546D01*
%TO.C,JP2*%
X135367163Y-105932380D02*
X135367163Y-106646666D01*
X135319544Y-106789523D01*
X135224306Y-106884761D01*
X135081449Y-106932380D01*
X134986211Y-106932380D01*
X135843354Y-106932380D02*
X135843354Y-105932380D01*
X136224306Y-105932380D01*
X136319544Y-105980000D01*
X136367163Y-106027619D01*
X136414782Y-106122857D01*
X136414782Y-106265714D01*
X136367163Y-106360952D01*
X136319544Y-106408571D01*
X136224306Y-106456190D01*
X135843354Y-106456190D01*
X136795735Y-106027619D02*
X136843354Y-105980000D01*
X136938592Y-105932380D01*
X137176687Y-105932380D01*
X137271925Y-105980000D01*
X137319544Y-106027619D01*
X137367163Y-106122857D01*
X137367163Y-106218095D01*
X137319544Y-106360952D01*
X136748116Y-106932380D01*
X137367163Y-106932380D01*
%TO.C,J1*%
X152066666Y-43912380D02*
X152066666Y-44626666D01*
X152019047Y-44769523D01*
X151923809Y-44864761D01*
X151780952Y-44912380D01*
X151685714Y-44912380D01*
X153066666Y-44912380D02*
X152495238Y-44912380D01*
X152780952Y-44912380D02*
X152780952Y-43912380D01*
X152685714Y-44055238D01*
X152590476Y-44150476D01*
X152495238Y-44198095D01*
%TO.C,D4*%
X113102380Y-76788095D02*
X112102380Y-76788095D01*
X112102380Y-76550000D01*
X112150000Y-76407142D01*
X112245238Y-76311904D01*
X112340476Y-76264285D01*
X112530952Y-76216666D01*
X112673809Y-76216666D01*
X112864285Y-76264285D01*
X112959523Y-76311904D01*
X113054761Y-76407142D01*
X113102380Y-76550000D01*
X113102380Y-76788095D01*
X112435714Y-75359523D02*
X113102380Y-75359523D01*
X112054761Y-75597619D02*
X112769047Y-75835714D01*
X112769047Y-75216666D01*
%TO.C,CHG1*%
X141517142Y-39140476D02*
X141564761Y-39188095D01*
X141612380Y-39330952D01*
X141612380Y-39426190D01*
X141564761Y-39569047D01*
X141469523Y-39664285D01*
X141374285Y-39711904D01*
X141183809Y-39759523D01*
X141040952Y-39759523D01*
X140850476Y-39711904D01*
X140755238Y-39664285D01*
X140660000Y-39569047D01*
X140612380Y-39426190D01*
X140612380Y-39330952D01*
X140660000Y-39188095D01*
X140707619Y-39140476D01*
X141612380Y-38711904D02*
X140612380Y-38711904D01*
X141088571Y-38711904D02*
X141088571Y-38140476D01*
X141612380Y-38140476D02*
X140612380Y-38140476D01*
X140660000Y-37140476D02*
X140612380Y-37235714D01*
X140612380Y-37378571D01*
X140660000Y-37521428D01*
X140755238Y-37616666D01*
X140850476Y-37664285D01*
X141040952Y-37711904D01*
X141183809Y-37711904D01*
X141374285Y-37664285D01*
X141469523Y-37616666D01*
X141564761Y-37521428D01*
X141612380Y-37378571D01*
X141612380Y-37283333D01*
X141564761Y-37140476D01*
X141517142Y-37092857D01*
X141183809Y-37092857D01*
X141183809Y-37283333D01*
X141612380Y-36140476D02*
X141612380Y-36711904D01*
X141612380Y-36426190D02*
X140612380Y-36426190D01*
X140755238Y-36521428D01*
X140850476Y-36616666D01*
X140898095Y-36711904D01*
%TO.C,C14*%
X100957142Y-75077142D02*
X100909523Y-75124761D01*
X100766666Y-75172380D01*
X100671428Y-75172380D01*
X100528571Y-75124761D01*
X100433333Y-75029523D01*
X100385714Y-74934285D01*
X100338095Y-74743809D01*
X100338095Y-74600952D01*
X100385714Y-74410476D01*
X100433333Y-74315238D01*
X100528571Y-74220000D01*
X100671428Y-74172380D01*
X100766666Y-74172380D01*
X100909523Y-74220000D01*
X100957142Y-74267619D01*
X101909523Y-75172380D02*
X101338095Y-75172380D01*
X101623809Y-75172380D02*
X101623809Y-74172380D01*
X101528571Y-74315238D01*
X101433333Y-74410476D01*
X101338095Y-74458095D01*
X102766666Y-74505714D02*
X102766666Y-75172380D01*
X102528571Y-74124761D02*
X102290476Y-74839047D01*
X102909523Y-74839047D01*
%TO.C,C9*%
X126833333Y-75077142D02*
X126785714Y-75124761D01*
X126642857Y-75172380D01*
X126547619Y-75172380D01*
X126404761Y-75124761D01*
X126309523Y-75029523D01*
X126261904Y-74934285D01*
X126214285Y-74743809D01*
X126214285Y-74600952D01*
X126261904Y-74410476D01*
X126309523Y-74315238D01*
X126404761Y-74220000D01*
X126547619Y-74172380D01*
X126642857Y-74172380D01*
X126785714Y-74220000D01*
X126833333Y-74267619D01*
X127309523Y-75172380D02*
X127500000Y-75172380D01*
X127595238Y-75124761D01*
X127642857Y-75077142D01*
X127738095Y-74934285D01*
X127785714Y-74743809D01*
X127785714Y-74362857D01*
X127738095Y-74267619D01*
X127690476Y-74220000D01*
X127595238Y-74172380D01*
X127404761Y-74172380D01*
X127309523Y-74220000D01*
X127261904Y-74267619D01*
X127214285Y-74362857D01*
X127214285Y-74600952D01*
X127261904Y-74696190D01*
X127309523Y-74743809D01*
X127404761Y-74791428D01*
X127595238Y-74791428D01*
X127690476Y-74743809D01*
X127738095Y-74696190D01*
X127785714Y-74600952D01*
%TO.C,C8*%
X114133333Y-87777142D02*
X114085714Y-87824761D01*
X113942857Y-87872380D01*
X113847619Y-87872380D01*
X113704761Y-87824761D01*
X113609523Y-87729523D01*
X113561904Y-87634285D01*
X113514285Y-87443809D01*
X113514285Y-87300952D01*
X113561904Y-87110476D01*
X113609523Y-87015238D01*
X113704761Y-86920000D01*
X113847619Y-86872380D01*
X113942857Y-86872380D01*
X114085714Y-86920000D01*
X114133333Y-86967619D01*
X114704761Y-87300952D02*
X114609523Y-87253333D01*
X114561904Y-87205714D01*
X114514285Y-87110476D01*
X114514285Y-87062857D01*
X114561904Y-86967619D01*
X114609523Y-86920000D01*
X114704761Y-86872380D01*
X114895238Y-86872380D01*
X114990476Y-86920000D01*
X115038095Y-86967619D01*
X115085714Y-87062857D01*
X115085714Y-87110476D01*
X115038095Y-87205714D01*
X114990476Y-87253333D01*
X114895238Y-87300952D01*
X114704761Y-87300952D01*
X114609523Y-87348571D01*
X114561904Y-87396190D01*
X114514285Y-87491428D01*
X114514285Y-87681904D01*
X114561904Y-87777142D01*
X114609523Y-87824761D01*
X114704761Y-87872380D01*
X114895238Y-87872380D01*
X114990476Y-87824761D01*
X115038095Y-87777142D01*
X115085714Y-87681904D01*
X115085714Y-87491428D01*
X115038095Y-87396190D01*
X114990476Y-87348571D01*
X114895238Y-87300952D01*
%TO.C,C7*%
X159879445Y-42929694D02*
X159927064Y-42977313D01*
X159974683Y-43120170D01*
X159974683Y-43215408D01*
X159927064Y-43358266D01*
X159831826Y-43453504D01*
X159736588Y-43501123D01*
X159546112Y-43548742D01*
X159403255Y-43548742D01*
X159212779Y-43501123D01*
X159117541Y-43453504D01*
X159022303Y-43358266D01*
X158974683Y-43215408D01*
X158974683Y-43120170D01*
X159022303Y-42977313D01*
X159069922Y-42929694D01*
X158974683Y-42596361D02*
X158974683Y-41929694D01*
X159974683Y-42358266D01*
%TO.C,C6*%
X126833333Y-87777142D02*
X126785714Y-87824761D01*
X126642857Y-87872380D01*
X126547619Y-87872380D01*
X126404761Y-87824761D01*
X126309523Y-87729523D01*
X126261904Y-87634285D01*
X126214285Y-87443809D01*
X126214285Y-87300952D01*
X126261904Y-87110476D01*
X126309523Y-87015238D01*
X126404761Y-86920000D01*
X126547619Y-86872380D01*
X126642857Y-86872380D01*
X126785714Y-86920000D01*
X126833333Y-86967619D01*
X127690476Y-86872380D02*
X127500000Y-86872380D01*
X127404761Y-86920000D01*
X127357142Y-86967619D01*
X127261904Y-87110476D01*
X127214285Y-87300952D01*
X127214285Y-87681904D01*
X127261904Y-87777142D01*
X127309523Y-87824761D01*
X127404761Y-87872380D01*
X127595238Y-87872380D01*
X127690476Y-87824761D01*
X127738095Y-87777142D01*
X127785714Y-87681904D01*
X127785714Y-87443809D01*
X127738095Y-87348571D01*
X127690476Y-87300952D01*
X127595238Y-87253333D01*
X127404761Y-87253333D01*
X127309523Y-87300952D01*
X127261904Y-87348571D01*
X127214285Y-87443809D01*
%TO.C,C3*%
X177633333Y-87437142D02*
X177585714Y-87484761D01*
X177442857Y-87532380D01*
X177347619Y-87532380D01*
X177204761Y-87484761D01*
X177109523Y-87389523D01*
X177061904Y-87294285D01*
X177014285Y-87103809D01*
X177014285Y-86960952D01*
X177061904Y-86770476D01*
X177109523Y-86675238D01*
X177204761Y-86580000D01*
X177347619Y-86532380D01*
X177442857Y-86532380D01*
X177585714Y-86580000D01*
X177633333Y-86627619D01*
X177966666Y-86532380D02*
X178585714Y-86532380D01*
X178252380Y-86913333D01*
X178395238Y-86913333D01*
X178490476Y-86960952D01*
X178538095Y-87008571D01*
X178585714Y-87103809D01*
X178585714Y-87341904D01*
X178538095Y-87437142D01*
X178490476Y-87484761D01*
X178395238Y-87532380D01*
X178109523Y-87532380D01*
X178014285Y-87484761D01*
X177966666Y-87437142D01*
%TO.C,C1*%
X114133333Y-100477142D02*
X114085714Y-100524761D01*
X113942857Y-100572380D01*
X113847619Y-100572380D01*
X113704761Y-100524761D01*
X113609523Y-100429523D01*
X113561904Y-100334285D01*
X113514285Y-100143809D01*
X113514285Y-100000952D01*
X113561904Y-99810476D01*
X113609523Y-99715238D01*
X113704761Y-99620000D01*
X113847619Y-99572380D01*
X113942857Y-99572380D01*
X114085714Y-99620000D01*
X114133333Y-99667619D01*
X115085714Y-100572380D02*
X114514285Y-100572380D01*
X114800000Y-100572380D02*
X114800000Y-99572380D01*
X114704761Y-99715238D01*
X114609523Y-99810476D01*
X114514285Y-99858095D01*
D11*
%TO.C,Y1*%
X146022781Y-110947864D02*
X146022781Y-110547864D01*
X146022781Y-110547864D02*
X149422781Y-110547864D01*
X149422781Y-110547864D02*
X149422781Y-110947864D01*
X146022781Y-118387864D02*
X149422781Y-118387864D01*
X149822781Y-117747864D02*
X149422781Y-117747864D01*
X149422781Y-117747864D02*
X149422781Y-118147864D01*
X149422781Y-118147864D02*
X146022781Y-118147864D01*
X146022781Y-118147864D02*
X146022781Y-117747864D01*
%TO.C,X2*%
X153050000Y-175100000D02*
X153050000Y-175600000D01*
X151650000Y-175100000D02*
X151650000Y-175600000D01*
X151650000Y-175100000D02*
X151050000Y-175100000D01*
X151050000Y-175100000D02*
X150850000Y-174900000D01*
X153850000Y-174900000D02*
X153850000Y-175100000D01*
X153850000Y-175100000D02*
X153050000Y-175100000D01*
X153050000Y-172100000D02*
X153850000Y-172100000D01*
X153850000Y-172100000D02*
X153850000Y-172300000D01*
X150850000Y-172300000D02*
X150850000Y-172100000D01*
X150850000Y-172100000D02*
X151650000Y-172100000D01*
%TO.C,X1*%
X163610000Y-105685000D02*
X164460000Y-105685000D01*
X164460000Y-105685000D02*
X164460000Y-103360000D01*
X164460000Y-103360000D02*
X166850000Y-103360000D01*
X163610000Y-97515000D02*
X164460000Y-97515000D01*
X164460000Y-97515000D02*
X164460000Y-99840000D01*
X160090000Y-105685000D02*
X159240000Y-105685000D01*
X159240000Y-105685000D02*
X159240000Y-97515000D01*
X159240000Y-97515000D02*
X160090000Y-97515000D01*
D12*
%TO.C,U4*%
X160600000Y-142350000D02*
X160600000Y-152350000D01*
X144200000Y-142350000D02*
X144200000Y-142850000D01*
X144600000Y-142350000D02*
X144200000Y-142350000D01*
X144200000Y-161950000D02*
X144200000Y-162450000D01*
X144600000Y-162450000D02*
X144200000Y-162450000D01*
X160600000Y-161950000D02*
X160600000Y-162450000D01*
X160600000Y-162450000D02*
X160200000Y-162450000D01*
X160600000Y-142350000D02*
X160200000Y-142350000D01*
D11*
%TO.C,U3*%
X126100000Y-65110000D02*
X127900000Y-65110000D01*
X127900000Y-61890000D02*
X125450000Y-61890000D01*
%TO.C,U2*%
X153165000Y-52410000D02*
X154965000Y-52410000D01*
X154965000Y-49190000D02*
X152515000Y-49190000D01*
%TO.C,U1*%
X150015000Y-130610000D02*
X149290000Y-130610000D01*
X149290000Y-130610000D02*
X149290000Y-129885000D01*
X155785000Y-123390000D02*
X156510000Y-123390000D01*
X156510000Y-123390000D02*
X156510000Y-124115000D01*
X150015000Y-123390000D02*
X149290000Y-123390000D01*
X149290000Y-123390000D02*
X149290000Y-124115000D01*
X155785000Y-130610000D02*
X156510000Y-130610000D01*
%TO.C,U$31*%
X179500000Y-38100000D02*
G75*
G03*
X179500000Y-38100000I-1700000J0D01*
G01*
%TO.C,U$3*%
X204925000Y-165100000D02*
G75*
G03*
X204925000Y-165100000I-1700000J0D01*
G01*
%TO.C,U$2*%
X128700000Y-38100000D02*
G75*
G03*
X128700000Y-38100000I-1700000J0D01*
G01*
%TO.C,U$1*%
X116000000Y-165100000D02*
G75*
G03*
X116000000Y-165100000I-1700000J0D01*
G01*
%TO.C,TP1*%
X143823360Y-172490443D02*
X146723360Y-172490443D01*
X146723360Y-172490443D02*
X146723360Y-175390443D01*
X146723360Y-175390443D02*
X143823360Y-175390443D01*
X143823360Y-175390443D02*
X143823360Y-172490443D01*
%TO.C,SW1*%
X142050000Y-54540000D02*
X142050000Y-49800000D01*
X142050000Y-54540000D02*
X142450000Y-54540000D01*
X142050000Y-49800000D02*
X142450000Y-49800000D01*
X146790000Y-54540000D02*
X146390000Y-54540000D01*
X146790000Y-54540000D02*
X146790000Y-49800000D01*
X146790000Y-49800000D02*
X146390000Y-49800000D01*
X145450000Y-49800000D02*
X143390000Y-49800000D01*
X145450000Y-54540000D02*
X143390000Y-54540000D01*
%TO.C,R10*%
X202972936Y-88790000D02*
X203427064Y-88790000D01*
X202972936Y-90260000D02*
X203427064Y-90260000D01*
%TO.C,R9*%
X190272936Y-50065000D02*
X190727064Y-50065000D01*
X190272936Y-51535000D02*
X190727064Y-51535000D01*
%TO.C,R8*%
X164993808Y-50065000D02*
X165447936Y-50065000D01*
X164993808Y-51535000D02*
X165447936Y-51535000D01*
%TO.C,R7*%
X152172936Y-100865000D02*
X152627064Y-100865000D01*
X152172936Y-102335000D02*
X152627064Y-102335000D01*
%TO.C,R6*%
X101372936Y-62765000D02*
X101827064Y-62765000D01*
X101372936Y-64235000D02*
X101827064Y-64235000D01*
%TO.C,R5*%
X126772936Y-99915000D02*
X127227064Y-99915000D01*
X126772936Y-101385000D02*
X127227064Y-101385000D01*
%TO.C,R4*%
X139472936Y-100865000D02*
X139927064Y-100865000D01*
X139472936Y-102335000D02*
X139927064Y-102335000D01*
%TO.C,R3*%
X114072936Y-50065000D02*
X114527064Y-50065000D01*
X114072936Y-51535000D02*
X114527064Y-51535000D01*
%TO.C,R2*%
X126772936Y-50065000D02*
X127227064Y-50065000D01*
X126772936Y-51535000D02*
X127227064Y-51535000D01*
%TO.C,R1*%
X174747936Y-58165000D02*
X175202064Y-58165000D01*
X174747936Y-59635000D02*
X175202064Y-59635000D01*
%TO.C,R0*%
X202972936Y-62765000D02*
X203427064Y-62765000D01*
X202972936Y-64235000D02*
X203427064Y-64235000D01*
%TO.C,L1*%
X160510000Y-37052500D02*
X160510000Y-39737500D01*
X160510000Y-39737500D02*
X162430000Y-39737500D01*
X162430000Y-39737500D02*
X162430000Y-37052500D01*
%TO.C,JP3*%
X164198684Y-110569404D02*
X166858684Y-110569404D01*
X164198684Y-110569404D02*
X164198684Y-138569404D01*
X164198684Y-138569404D02*
X166858684Y-138569404D01*
X166858684Y-110569404D02*
X166858684Y-138569404D01*
X166858684Y-107969404D02*
X166858684Y-109299404D01*
X165528684Y-107969404D02*
X166858684Y-107969404D01*
%TO.C,JP2*%
X134870497Y-110520000D02*
X137530497Y-110520000D01*
X134870497Y-110520000D02*
X134870497Y-148680000D01*
X134870497Y-148680000D02*
X137530497Y-148680000D01*
X137530497Y-110520000D02*
X137530497Y-148680000D01*
X137530497Y-107920000D02*
X137530497Y-109250000D01*
X136200497Y-107920000D02*
X137530497Y-107920000D01*
%TO.C,J1*%
X149150000Y-43470000D02*
X147650000Y-43470000D01*
X147650000Y-43470000D02*
X147650000Y-36210000D01*
X157150000Y-43470000D02*
X157150000Y-36210000D01*
X157150000Y-43470000D02*
X155650000Y-43470000D01*
%TO.C,D4*%
X113340000Y-75050000D02*
X113340000Y-77735000D01*
X113340000Y-77735000D02*
X115260000Y-77735000D01*
X115260000Y-77735000D02*
X115260000Y-75050000D01*
%TO.C,CHG1*%
X141850000Y-36950000D02*
X141850000Y-39635000D01*
X141850000Y-39635000D02*
X143770000Y-39635000D01*
X143770000Y-39635000D02*
X143770000Y-36950000D01*
%TO.C,C14*%
X102400000Y-75415000D02*
X100090000Y-75415000D01*
X100090000Y-75415000D02*
X100090000Y-76985000D01*
X100090000Y-76985000D02*
X102400000Y-76985000D01*
%TO.C,C9*%
X127800000Y-75415000D02*
X125490000Y-75415000D01*
X125490000Y-75415000D02*
X125490000Y-76985000D01*
X125490000Y-76985000D02*
X127800000Y-76985000D01*
%TO.C,C8*%
X115100000Y-88115000D02*
X112790000Y-88115000D01*
X112790000Y-88115000D02*
X112790000Y-89685000D01*
X112790000Y-89685000D02*
X115100000Y-89685000D01*
%TO.C,C7*%
X160217303Y-41963028D02*
X160217303Y-44273028D01*
X160217303Y-44273028D02*
X161787303Y-44273028D01*
X161787303Y-44273028D02*
X161787303Y-41963028D01*
%TO.C,C6*%
X127800000Y-88115000D02*
X125490000Y-88115000D01*
X125490000Y-88115000D02*
X125490000Y-89685000D01*
X125490000Y-89685000D02*
X127800000Y-89685000D01*
%TO.C,C3*%
X178600000Y-87775000D02*
X176290000Y-87775000D01*
X176290000Y-87775000D02*
X176290000Y-89345000D01*
X176290000Y-89345000D02*
X178600000Y-89345000D01*
%TO.C,C1*%
X115100000Y-100815000D02*
X112790000Y-100815000D01*
X112790000Y-100815000D02*
X112790000Y-102385000D01*
X112790000Y-102385000D02*
X115100000Y-102385000D01*
%TD*%
%LPC*%
D13*
%TO.C,Y1*%
X147722781Y-116847864D03*
X147722781Y-114347864D03*
X147722781Y-111847864D03*
%TD*%
D14*
%TO.C,X2*%
X150875000Y-173600000D03*
X153825000Y-173600000D03*
D15*
X152350000Y-172100000D03*
X152350000Y-175100000D03*
%TD*%
D16*
%TO.C,X1*%
X164100000Y-102600000D03*
X164100000Y-100600000D03*
D17*
X161850000Y-105000000D03*
X161850000Y-98200000D03*
%TD*%
D18*
%TO.C,U4*%
X159400000Y-161500000D03*
X157400000Y-161500000D03*
X155400000Y-161500000D03*
X153400000Y-161500000D03*
X151400000Y-161500000D03*
X149400000Y-161500000D03*
X147400000Y-161500000D03*
X145400000Y-161500000D03*
X145400000Y-143300000D03*
X147400000Y-143300000D03*
X149400000Y-143300000D03*
X151400000Y-143300000D03*
X153400000Y-143300000D03*
X155400000Y-143300000D03*
X157400000Y-143300000D03*
X159400000Y-143300000D03*
%TD*%
D19*
%TO.C,U3*%
X125900000Y-62550000D03*
X125900000Y-63500000D03*
X125900000Y-64450000D03*
X128100000Y-64450000D03*
X128100000Y-62550000D03*
%TD*%
%TO.C,U2*%
X152965000Y-49850000D03*
X152965000Y-50800000D03*
X152965000Y-51750000D03*
X155165000Y-51750000D03*
X155165000Y-49850000D03*
%TD*%
D20*
%TO.C,U1*%
X156237500Y-129500000D03*
X156237500Y-129000000D03*
X156237500Y-128500000D03*
X156237500Y-128000000D03*
X156237500Y-127500000D03*
X156237500Y-127000000D03*
X156237500Y-126500000D03*
X156237500Y-126000000D03*
X156237500Y-125500000D03*
X156237500Y-125000000D03*
X156237500Y-124500000D03*
D21*
X155400000Y-123662500D03*
X154900000Y-123662500D03*
X154400000Y-123662500D03*
X153900000Y-123662500D03*
X153400000Y-123662500D03*
X152900000Y-123662500D03*
X152400000Y-123662500D03*
X151900000Y-123662500D03*
X151400000Y-123662500D03*
X150900000Y-123662500D03*
X150400000Y-123662500D03*
D20*
X149562500Y-124500000D03*
X149562500Y-125000000D03*
X149562500Y-125500000D03*
X149562500Y-126000000D03*
X149562500Y-126500000D03*
X149562500Y-127000000D03*
X149562500Y-127500000D03*
X149562500Y-128000000D03*
X149562500Y-128500000D03*
X149562500Y-129000000D03*
X149562500Y-129500000D03*
D21*
X150400000Y-130337500D03*
X150900000Y-130337500D03*
X151400000Y-130337500D03*
X151900000Y-130337500D03*
X152400000Y-130337500D03*
X152900000Y-130337500D03*
X153400000Y-130337500D03*
X153900000Y-130337500D03*
X154400000Y-130337500D03*
X154900000Y-130337500D03*
X155400000Y-130337500D03*
D22*
X152900000Y-127000000D03*
%TD*%
D23*
%TO.C,U$31*%
X177800000Y-38100000D03*
%TD*%
%TO.C,U$3*%
X203225000Y-165100000D03*
%TD*%
%TO.C,U$2*%
X127000000Y-38100000D03*
%TD*%
%TO.C,U$1*%
X114300000Y-165100000D03*
%TD*%
D24*
%TO.C,TP1*%
X145273360Y-173940443D03*
%TD*%
D25*
%TO.C,SW1*%
X142920000Y-48570000D03*
X142920000Y-55770000D03*
X145920000Y-48570000D03*
X145920000Y-55770000D03*
%TD*%
D26*
%TO.C,R10*%
X202287500Y-89525000D03*
X204112500Y-89525000D03*
%TD*%
%TO.C,R9*%
X189587500Y-50800000D03*
X191412500Y-50800000D03*
%TD*%
%TO.C,R8*%
X164308372Y-50800000D03*
X166133372Y-50800000D03*
%TD*%
%TO.C,R7*%
X151487500Y-101600000D03*
X153312500Y-101600000D03*
%TD*%
%TO.C,R6*%
X100687500Y-63500000D03*
X102512500Y-63500000D03*
%TD*%
%TO.C,R5*%
X126087500Y-100650000D03*
X127912500Y-100650000D03*
%TD*%
%TO.C,R4*%
X138787500Y-101600000D03*
X140612500Y-101600000D03*
%TD*%
%TO.C,R3*%
X113387500Y-50800000D03*
X115212500Y-50800000D03*
%TD*%
%TO.C,R2*%
X126087500Y-50800000D03*
X127912500Y-50800000D03*
%TD*%
%TO.C,R1*%
X174062500Y-58900000D03*
X175887500Y-58900000D03*
%TD*%
%TO.C,R0*%
X202287500Y-63500000D03*
X204112500Y-63500000D03*
%TD*%
D27*
%TO.C,L1*%
X161470000Y-38990000D03*
X161470000Y-37115000D03*
%TD*%
D28*
%TO.C,JP3*%
X165528684Y-109299404D03*
D29*
X165528684Y-111839404D03*
X165528684Y-114379404D03*
X165528684Y-116919404D03*
X165528684Y-119459404D03*
X165528684Y-121999404D03*
X165528684Y-124539404D03*
X165528684Y-127079404D03*
X165528684Y-129619404D03*
X165528684Y-132159404D03*
X165528684Y-134699404D03*
X165528684Y-137239404D03*
%TD*%
D28*
%TO.C,JP2*%
X136200497Y-109250000D03*
D29*
X136200497Y-111790000D03*
X136200497Y-114330000D03*
X136200497Y-116870000D03*
X136200497Y-119410000D03*
X136200497Y-121950000D03*
X136200497Y-124490000D03*
X136200497Y-127030000D03*
X136200497Y-129570000D03*
X136200497Y-132110000D03*
X136200497Y-134650000D03*
X136200497Y-137190000D03*
X136200497Y-139730000D03*
X136200497Y-142270000D03*
X136200497Y-144810000D03*
X136200497Y-147350000D03*
%TD*%
D30*
%TO.C,J1*%
X156530000Y-41210000D03*
D31*
X155150000Y-43120000D03*
X154650000Y-43120000D03*
X154150000Y-43120000D03*
X153650000Y-43120000D03*
X153150000Y-43120000D03*
X152650000Y-43120000D03*
X152150000Y-43120000D03*
X149650000Y-43120000D03*
X150650000Y-43120000D03*
X151150000Y-43120000D03*
X151650000Y-43120000D03*
X150150000Y-43120000D03*
D30*
X148270000Y-41210000D03*
X147910000Y-35260000D03*
X156890000Y-35260000D03*
D32*
X148800000Y-42460000D03*
D33*
X156000000Y-42460000D03*
X149600000Y-41810000D03*
X151200000Y-41810000D03*
X152000000Y-41810000D03*
X152800000Y-41810000D03*
X153600000Y-41810000D03*
X155200000Y-41810000D03*
X150000000Y-41110000D03*
X150800000Y-41110000D03*
X151600000Y-41110000D03*
X153200000Y-41110000D03*
X154000000Y-41110000D03*
X154800000Y-41110000D03*
%TD*%
D27*
%TO.C,D4*%
X114300000Y-76987500D03*
X114300000Y-75112500D03*
%TD*%
%TO.C,CHG1*%
X142810000Y-38887500D03*
X142810000Y-37012500D03*
%TD*%
D34*
%TO.C,C14*%
X100887500Y-76200000D03*
X102312500Y-76200000D03*
%TD*%
%TO.C,C9*%
X126287500Y-76200000D03*
X127712500Y-76200000D03*
%TD*%
%TO.C,C8*%
X113587500Y-88900000D03*
X115012500Y-88900000D03*
%TD*%
D35*
%TO.C,C7*%
X161002303Y-43475528D03*
X161002303Y-42050528D03*
%TD*%
D34*
%TO.C,C6*%
X126287500Y-88900000D03*
X127712500Y-88900000D03*
%TD*%
%TO.C,C3*%
X177087500Y-88560000D03*
X178512500Y-88560000D03*
%TD*%
%TO.C,C1*%
X113587500Y-101600000D03*
X115012500Y-101600000D03*
%TD*%
M02*
