M48
; DRILL file {KiCad 6.0.11-2627ca5db0~126~ubuntu20.04.1} date 2023-02-12T02:05:53 CET
; FORMAT={-:-/ absolute / inch / decimal}
; #@! TF.CreationDate,2023-02-12T02:05:53+01:00
; #@! TF.GenerationSoftware,Kicad,Pcbnew,6.0.11-2627ca5db0~126~ubuntu20.04.1
; #@! TF.FileFunction,Plated,1,2,PTH
FMAT,2
INCH
; #@! TA.AperFunction,Plated,PTH,ComponentDrill
T1C0.0157
; #@! TA.AperFunction,Plated,PTH,ComponentDrill
T2C0.0197
; #@! TA.AperFunction,Plated,PTH,ComponentDrill
T3C0.0394
; #@! TA.AperFunction,Plated,PTH,ComponentDrill
T4C0.0787
%
G90
G05
T1
X5.8898Y-1.6461
X5.9055Y-1.6185
X5.937Y-1.6185
X5.9528Y-1.6461
X5.9685Y-1.6185
X5.9843Y-1.6461
X6.0157Y-1.6461
X6.0315Y-1.6185
X6.0472Y-1.6461
X6.063Y-1.6185
X6.0945Y-1.6185
X6.1102Y-1.6461
T3
X5.3622Y-4.3012
X5.3622Y-4.4012
X5.3622Y-4.5012
X5.3622Y-4.6012
X5.3622Y-4.7012
X5.3622Y-4.8012
X5.3622Y-4.9012
X5.3622Y-5.0012
X5.3622Y-5.1012
X5.3622Y-5.2012
X5.3622Y-5.3012
X5.3622Y-5.4012
X5.3622Y-5.5012
X5.3622Y-5.6012
X5.3622Y-5.7012
X5.3622Y-5.8012
X6.5169Y-4.3031
X6.5169Y-4.4031
X6.5169Y-4.5031
X6.5169Y-4.6031
X6.5169Y-4.7031
X6.5169Y-4.8031
X6.5169Y-4.9031
X6.5169Y-5.0031
X6.5169Y-5.1031
X6.5169Y-5.2031
X6.5169Y-5.3031
X6.5169Y-5.4031
T4
X4.5Y-6.5
X5.0Y-1.5
X7.0Y-1.5
X8.001Y-6.5
T2
G00X5.8232Y-1.4
M15
G01X5.8232Y-1.3764
M16
G05
G00X5.8374Y-1.6343
M15
G01X5.8374Y-1.6106
M16
G05
G00X6.1626Y-1.6343
M15
G01X6.1626Y-1.6106
M16
G05
G00X6.1768Y-1.4
M15
G01X6.1768Y-1.3764
M16
G05
T0
M30
