%TF.GenerationSoftware,KiCad,Pcbnew,6.0.11-2627ca5db0~126~ubuntu20.04.1*%
%TF.CreationDate,2023-02-12T02:05:53+01:00*%
%TF.ProjectId,HeadTracker_LoRa,48656164-5472-4616-936b-65725f4c6f52,rev?*%
%TF.SameCoordinates,Original*%
%TF.FileFunction,Copper,L1,Top*%
%TF.FilePolarity,Positive*%
%FSLAX46Y46*%
G04 Gerber Fmt 4.6, Leading zero omitted, Abs format (unit mm)*
G04 Created by KiCad (PCBNEW 6.0.11-2627ca5db0~126~ubuntu20.04.1) date 2023-02-12 02:05:53*
%MOMM*%
%LPD*%
G01*
G04 APERTURE LIST*
G04 Aperture macros list*
%AMRoundRect*
0 Rectangle with rounded corners*
0 $1 Rounding radius*
0 $2 $3 $4 $5 $6 $7 $8 $9 X,Y pos of 4 corners*
0 Add a 4 corners polygon primitive as box body*
4,1,4,$2,$3,$4,$5,$6,$7,$8,$9,$2,$3,0*
0 Add four circle primitives for the rounded corners*
1,1,$1+$1,$2,$3*
1,1,$1+$1,$4,$5*
1,1,$1+$1,$6,$7*
1,1,$1+$1,$8,$9*
0 Add four rect primitives between the rounded corners*
20,1,$1+$1,$2,$3,$4,$5,0*
20,1,$1+$1,$4,$5,$6,$7,0*
20,1,$1+$1,$6,$7,$8,$9,0*
20,1,$1+$1,$8,$9,$2,$3,0*%
G04 Aperture macros list end*
%TA.AperFunction,SMDPad,CuDef*%
%ADD10R,3.800000X1.400000*%
%TD*%
%TA.AperFunction,SMDPad,CuDef*%
%ADD11R,1.050000X2.200000*%
%TD*%
%TA.AperFunction,SMDPad,CuDef*%
%ADD12R,1.000000X1.000000*%
%TD*%
%TA.AperFunction,SMDPad,CuDef*%
%ADD13RoundRect,0.250000X2.500000X-0.250000X2.500000X0.250000X-2.500000X0.250000X-2.500000X-0.250000X0*%
%TD*%
%TA.AperFunction,SMDPad,CuDef*%
%ADD14RoundRect,0.250000X1.250000X-0.550000X1.250000X0.550000X-1.250000X0.550000X-1.250000X-0.550000X0*%
%TD*%
%TA.AperFunction,SMDPad,CuDef*%
%ADD15R,1.000000X2.500000*%
%TD*%
%TA.AperFunction,SMDPad,CuDef*%
%ADD16R,1.060000X0.650000*%
%TD*%
%TA.AperFunction,SMDPad,CuDef*%
%ADD17RoundRect,0.062500X0.475000X0.062500X-0.475000X0.062500X-0.475000X-0.062500X0.475000X-0.062500X0*%
%TD*%
%TA.AperFunction,SMDPad,CuDef*%
%ADD18RoundRect,0.062500X0.062500X0.475000X-0.062500X0.475000X-0.062500X-0.475000X0.062500X-0.475000X0*%
%TD*%
%TA.AperFunction,SMDPad,CuDef*%
%ADD19R,5.200000X5.200000*%
%TD*%
%TA.AperFunction,ComponentPad*%
%ADD20C,3.000000*%
%TD*%
%TA.AperFunction,SMDPad,CuDef*%
%ADD21R,2.500000X2.500000*%
%TD*%
%TA.AperFunction,SMDPad,CuDef*%
%ADD22R,1.400000X1.600000*%
%TD*%
%TA.AperFunction,SMDPad,CuDef*%
%ADD23RoundRect,0.250000X-0.262500X-0.450000X0.262500X-0.450000X0.262500X0.450000X-0.262500X0.450000X0*%
%TD*%
%TA.AperFunction,SMDPad,CuDef*%
%ADD24RoundRect,0.243750X0.456250X-0.243750X0.456250X0.243750X-0.456250X0.243750X-0.456250X-0.243750X0*%
%TD*%
%TA.AperFunction,ComponentPad*%
%ADD25R,1.700000X1.700000*%
%TD*%
%TA.AperFunction,ComponentPad*%
%ADD26O,1.700000X1.700000*%
%TD*%
%TA.AperFunction,ComponentPad*%
%ADD27O,0.800000X1.400000*%
%TD*%
%TA.AperFunction,SMDPad,CuDef*%
%ADD28R,0.300000X0.700000*%
%TD*%
%TA.AperFunction,ComponentPad*%
%ADD29C,0.650000*%
%TD*%
%TA.AperFunction,SMDPad,CuDef*%
%ADD30RoundRect,0.250000X-0.287500X-0.275000X0.287500X-0.275000X0.287500X0.275000X-0.287500X0.275000X0*%
%TD*%
%TA.AperFunction,SMDPad,CuDef*%
%ADD31RoundRect,0.250000X0.275000X-0.287500X0.275000X0.287500X-0.275000X0.287500X-0.275000X-0.287500X0*%
%TD*%
G04 APERTURE END LIST*
D10*
%TO.P,Y1,1,1*%
%TO.N,Net-(Y1-Pad1)*%
X147722781Y-116847864D03*
%TO.P,Y1,2,2*%
%TO.N,GND*%
X147722781Y-114347864D03*
%TO.P,Y1,3,3*%
%TO.N,Net-(Y1-Pad3)*%
X147722781Y-111847864D03*
%TD*%
D11*
%TO.P,X2,2,GND@1*%
%TO.N,GND*%
X150875000Y-173600000D03*
X153825000Y-173600000D03*
D12*
X152350000Y-172100000D03*
%TO.P,X2,1,GND@0*%
X152350000Y-175100000D03*
%TD*%
D13*
%TO.P,X1,1,1*%
%TO.N,GND*%
X164100000Y-102600000D03*
%TO.P,X1,2,2*%
%TO.N,VBAT*%
X164100000Y-100600000D03*
D14*
%TO.P,X1,MP*%
%TO.N,N/C*%
X161850000Y-105000000D03*
X161850000Y-98200000D03*
%TD*%
D15*
%TO.P,U4,16,DIO2*%
%TO.N,unconnected-(U4-Pad16)*%
X159400000Y-161500000D03*
%TO.P,U4,15,DIO1*%
%TO.N,/DIO1*%
X157400000Y-161500000D03*
%TO.P,U4,14,DIO0*%
%TO.N,/DZ_IRQ*%
X155400000Y-161500000D03*
%TO.P,U4,13,3.3V*%
%TO.N,+3V3*%
X153400000Y-161500000D03*
%TO.P,U4,12,DIO4*%
%TO.N,unconnected-(U4-Pad12)*%
X151400000Y-161500000D03*
%TO.P,U4,11,DIO3*%
%TO.N,unconnected-(U4-Pad11)*%
X149400000Y-161500000D03*
%TO.P,U4,10,GND*%
%TO.N,GND*%
X147400000Y-161500000D03*
%TO.P,U4,9,ANT*%
%TO.N,Net-(U4-Pad9)*%
X145400000Y-161500000D03*
%TO.P,U4,8,GND*%
%TO.N,GND*%
X145400000Y-143300000D03*
%TO.P,U4,7,DIO5*%
%TO.N,unconnected-(U4-Pad7)*%
X147400000Y-143300000D03*
%TO.P,U4,6,RESET*%
%TO.N,/D4_RST*%
X149400000Y-143300000D03*
%TO.P,U4,5,NSS*%
%TO.N,/D8_CS*%
X151400000Y-143300000D03*
%TO.P,U4,4,SCK*%
%TO.N,/SCK*%
X153400000Y-143300000D03*
%TO.P,U4,3,MOSI*%
%TO.N,/MOSI*%
X155400000Y-143300000D03*
%TO.P,U4,2,MISO*%
%TO.N,/MISO*%
X157400000Y-143300000D03*
%TO.P,U4,1,GND*%
%TO.N,GND*%
X159400000Y-143300000D03*
%TD*%
D16*
%TO.P,U3,1,STAT*%
%TO.N,Net-(R2-Pad2)*%
X125900000Y-62550000D03*
%TO.P,U3,2,VSS*%
%TO.N,GND*%
X125900000Y-63500000D03*
%TO.P,U3,3,VBAT*%
%TO.N,VBAT*%
X125900000Y-64450000D03*
%TO.P,U3,4,VDD*%
%TO.N,VBUS*%
X128100000Y-64450000D03*
%TO.P,U3,5,PROG*%
%TO.N,Net-(U3-Pad5)*%
X128100000Y-62550000D03*
%TD*%
%TO.P,U2,1,VIN*%
%TO.N,VBUS*%
X152965000Y-49850000D03*
%TO.P,U2,2,GND*%
%TO.N,GND*%
X152965000Y-50800000D03*
%TO.P,U2,3,EN*%
%TO.N,/EN*%
X152965000Y-51750000D03*
%TO.P,U2,4,NC*%
%TO.N,unconnected-(U2-Pad4)*%
X155165000Y-51750000D03*
%TO.P,U2,5,VOUT*%
%TO.N,+3V3*%
X155165000Y-49850000D03*
%TD*%
D17*
%TO.P,U1,1,PE6*%
%TO.N,/DZ_IRQ*%
X156237500Y-129500000D03*
%TO.P,U1,2,UVCC*%
%TO.N,unconnected-(U1-Pad2)*%
X156237500Y-129000000D03*
%TO.P,U1,3,D-*%
%TO.N,/D-*%
X156237500Y-128500000D03*
%TO.P,U1,4,D+*%
%TO.N,/D+*%
X156237500Y-128000000D03*
%TO.P,U1,5,UGND*%
%TO.N,GND*%
X156237500Y-127500000D03*
%TO.P,U1,6,UCAP*%
%TO.N,+3V3*%
X156237500Y-127000000D03*
%TO.P,U1,7,VBUS*%
%TO.N,VBUS*%
X156237500Y-126500000D03*
%TO.P,U1,8,PB0*%
%TO.N,unconnected-(U1-Pad8)*%
X156237500Y-126000000D03*
%TO.P,U1,9,PB1*%
%TO.N,/SCK*%
X156237500Y-125500000D03*
%TO.P,U1,10,PB2*%
%TO.N,/MOSI*%
X156237500Y-125000000D03*
%TO.P,U1,11,PB3*%
%TO.N,/MISO*%
X156237500Y-124500000D03*
D18*
%TO.P,U1,12,PB7*%
%TO.N,/11*%
X155400000Y-123662500D03*
%TO.P,U1,13,~{RESET}*%
%TO.N,/RST*%
X154900000Y-123662500D03*
%TO.P,U1,14,VCC*%
%TO.N,+3V3*%
X154400000Y-123662500D03*
%TO.P,U1,15,GND*%
%TO.N,GND*%
X153900000Y-123662500D03*
%TO.P,U1,16,XTAL2*%
%TO.N,Net-(Y1-Pad3)*%
X153400000Y-123662500D03*
%TO.P,U1,17,XTAL1*%
%TO.N,Net-(Y1-Pad1)*%
X152900000Y-123662500D03*
%TO.P,U1,18,PD0*%
%TO.N,/3*%
X152400000Y-123662500D03*
%TO.P,U1,19,PD1*%
%TO.N,/2*%
X151900000Y-123662500D03*
%TO.P,U1,20,PD2*%
%TO.N,/0*%
X151400000Y-123662500D03*
%TO.P,U1,21,PD3*%
%TO.N,/1*%
X150900000Y-123662500D03*
%TO.P,U1,22,PD5*%
%TO.N,unconnected-(U1-Pad22)*%
X150400000Y-123662500D03*
D17*
%TO.P,U1,23,GND*%
%TO.N,GND*%
X149562500Y-124500000D03*
%TO.P,U1,24,AVCC*%
%TO.N,+3V3*%
X149562500Y-125000000D03*
%TO.P,U1,25,PD4*%
%TO.N,/D4_RST*%
X149562500Y-125500000D03*
%TO.P,U1,26,PD6*%
%TO.N,/12*%
X149562500Y-126000000D03*
%TO.P,U1,27,PD7*%
%TO.N,/6*%
X149562500Y-126500000D03*
%TO.P,U1,28,PB4*%
%TO.N,/8*%
X149562500Y-127000000D03*
%TO.P,U1,29,PB5*%
%TO.N,/9*%
X149562500Y-127500000D03*
%TO.P,U1,30,PB6*%
%TO.N,/10*%
X149562500Y-128000000D03*
%TO.P,U1,31,PC6*%
%TO.N,/5*%
X149562500Y-128500000D03*
%TO.P,U1,32,PC7*%
%TO.N,/13*%
X149562500Y-129000000D03*
%TO.P,U1,33,~{HWB}/PE2*%
%TO.N,+3V3*%
X149562500Y-129500000D03*
D18*
%TO.P,U1,34,VCC*%
X150400000Y-130337500D03*
%TO.P,U1,35,GND*%
%TO.N,GND*%
X150900000Y-130337500D03*
%TO.P,U1,36,PF7*%
%TO.N,/A0*%
X151400000Y-130337500D03*
%TO.P,U1,37,PF6*%
%TO.N,/A1*%
X151900000Y-130337500D03*
%TO.P,U1,38,PF5*%
%TO.N,/A2*%
X152400000Y-130337500D03*
%TO.P,U1,39,PF4*%
%TO.N,/A3*%
X152900000Y-130337500D03*
%TO.P,U1,40,PF1*%
%TO.N,/A4*%
X153400000Y-130337500D03*
%TO.P,U1,41,PF0*%
%TO.N,/A5*%
X153900000Y-130337500D03*
%TO.P,U1,42,AREF*%
%TO.N,/AREF*%
X154400000Y-130337500D03*
%TO.P,U1,43,GND*%
%TO.N,GND*%
X154900000Y-130337500D03*
%TO.P,U1,44,AVCC*%
%TO.N,+3V3*%
X155400000Y-130337500D03*
D19*
%TO.P,U1,45,GND*%
%TO.N,GND*%
X152900000Y-127000000D03*
%TD*%
D20*
%TO.P,U$31,1*%
%TO.N,N/C*%
X177800000Y-38100000D03*
%TD*%
%TO.P,U$3,1*%
%TO.N,N/C*%
X203225000Y-165100000D03*
%TD*%
%TO.P,U$2,1*%
%TO.N,N/C*%
X127000000Y-38100000D03*
%TD*%
%TO.P,U$1,1*%
%TO.N,N/C*%
X114300000Y-165100000D03*
%TD*%
D21*
%TO.P,TP1,1,1*%
%TO.N,Net-(U4-Pad9)*%
X145273360Y-173940443D03*
%TD*%
D22*
%TO.P,SW1,1,P*%
%TO.N,/RST*%
X142920000Y-48570000D03*
X142920000Y-55770000D03*
%TO.P,SW1,2,S*%
%TO.N,GND*%
X145920000Y-48570000D03*
X145920000Y-55770000D03*
%TD*%
D23*
%TO.P,R10,1*%
%TO.N,GND*%
X202287500Y-89525000D03*
%TO.P,R10,2*%
%TO.N,/CC2*%
X204112500Y-89525000D03*
%TD*%
%TO.P,R9,1*%
%TO.N,/EN*%
X189587500Y-50800000D03*
%TO.P,R9,2*%
%TO.N,VBUS*%
X191412500Y-50800000D03*
%TD*%
%TO.P,R8,1*%
%TO.N,Net-(J1-PadA6)*%
X164308372Y-50800000D03*
%TO.P,R8,2*%
%TO.N,/D+*%
X166133372Y-50800000D03*
%TD*%
%TO.P,R7,1*%
%TO.N,/13*%
X151487500Y-101600000D03*
%TO.P,R7,2*%
%TO.N,Net-(L1-Pad2)*%
X153312500Y-101600000D03*
%TD*%
%TO.P,R6,1*%
%TO.N,/9*%
X100687500Y-63500000D03*
%TO.P,R6,2*%
%TO.N,GND*%
X102512500Y-63500000D03*
%TD*%
%TO.P,R5,1*%
%TO.N,Net-(J1-PadA7)*%
X126087500Y-100650000D03*
%TO.P,R5,2*%
%TO.N,/D-*%
X127912500Y-100650000D03*
%TD*%
%TO.P,R4,1*%
%TO.N,GND*%
X138787500Y-101600000D03*
%TO.P,R4,2*%
%TO.N,/CC1*%
X140612500Y-101600000D03*
%TD*%
%TO.P,R3,1*%
%TO.N,VBAT*%
X113387500Y-50800000D03*
%TO.P,R3,2*%
%TO.N,/9*%
X115212500Y-50800000D03*
%TD*%
%TO.P,R2,1*%
%TO.N,Net-(CHG1-Pad1)*%
X126087500Y-50800000D03*
%TO.P,R2,2*%
%TO.N,Net-(R2-Pad2)*%
X127912500Y-50800000D03*
%TD*%
%TO.P,R1,1*%
%TO.N,+3V3*%
X174062500Y-58900000D03*
%TO.P,R1,2*%
%TO.N,/D8_CS*%
X175887500Y-58900000D03*
%TD*%
%TO.P,R0,1*%
%TO.N,GND*%
X202287500Y-63500000D03*
%TO.P,R0,2*%
%TO.N,Net-(U3-Pad5)*%
X204112500Y-63500000D03*
%TD*%
D24*
%TO.P,L1,1,K*%
%TO.N,GND*%
X161470000Y-38990000D03*
%TO.P,L1,2,A*%
%TO.N,Net-(L1-Pad2)*%
X161470000Y-37115000D03*
%TD*%
D25*
%TO.P,JP3,1,Pin_1*%
%TO.N,VBAT*%
X165528684Y-109299404D03*
D26*
%TO.P,JP3,2,Pin_2*%
%TO.N,/EN*%
X165528684Y-111839404D03*
%TO.P,JP3,3,Pin_3*%
%TO.N,VBUS*%
X165528684Y-114379404D03*
%TO.P,JP3,4,Pin_4*%
%TO.N,/13*%
X165528684Y-116919404D03*
%TO.P,JP3,5,Pin_5*%
%TO.N,/12*%
X165528684Y-119459404D03*
%TO.P,JP3,6,Pin_6*%
%TO.N,/11*%
X165528684Y-121999404D03*
%TO.P,JP3,7,Pin_7*%
%TO.N,/10*%
X165528684Y-124539404D03*
%TO.P,JP3,8,Pin_8*%
%TO.N,/9*%
X165528684Y-127079404D03*
%TO.P,JP3,9,Pin_9*%
%TO.N,/6*%
X165528684Y-129619404D03*
%TO.P,JP3,10,Pin_10*%
%TO.N,/5*%
X165528684Y-132159404D03*
%TO.P,JP3,11,Pin_11*%
%TO.N,/3*%
X165528684Y-134699404D03*
%TO.P,JP3,12,Pin_12*%
%TO.N,/2*%
X165528684Y-137239404D03*
%TD*%
D25*
%TO.P,JP2,1,Pin_1*%
%TO.N,/DIO1*%
X136200497Y-109250000D03*
D26*
%TO.P,JP2,2,Pin_2*%
%TO.N,/1*%
X136200497Y-111790000D03*
%TO.P,JP2,3,Pin_3*%
%TO.N,/0*%
X136200497Y-114330000D03*
%TO.P,JP2,4,Pin_4*%
%TO.N,/MISO*%
X136200497Y-116870000D03*
%TO.P,JP2,5,Pin_5*%
%TO.N,/MOSI*%
X136200497Y-119410000D03*
%TO.P,JP2,6,Pin_6*%
%TO.N,/SCK*%
X136200497Y-121950000D03*
%TO.P,JP2,7,Pin_7*%
%TO.N,/A5*%
X136200497Y-124490000D03*
%TO.P,JP2,8,Pin_8*%
%TO.N,/A4*%
X136200497Y-127030000D03*
%TO.P,JP2,9,Pin_9*%
%TO.N,/A3*%
X136200497Y-129570000D03*
%TO.P,JP2,10,Pin_10*%
%TO.N,/A2*%
X136200497Y-132110000D03*
%TO.P,JP2,11,Pin_11*%
%TO.N,/A1*%
X136200497Y-134650000D03*
%TO.P,JP2,12,Pin_12*%
%TO.N,/A0*%
X136200497Y-137190000D03*
%TO.P,JP2,13,Pin_13*%
%TO.N,GND*%
X136200497Y-139730000D03*
%TO.P,JP2,14,Pin_14*%
%TO.N,/AREF*%
X136200497Y-142270000D03*
%TO.P,JP2,15,Pin_15*%
%TO.N,+3V3*%
X136200497Y-144810000D03*
%TO.P,JP2,16,Pin_16*%
%TO.N,/RST*%
X136200497Y-147350000D03*
%TD*%
D27*
%TO.P,J1,S1,SHIELD*%
%TO.N,unconnected-(J1-PadS1)*%
X156530000Y-41210000D03*
D28*
%TO.P,J1,A1,GND*%
%TO.N,GND*%
X155150000Y-43120000D03*
%TO.P,J1,A2*%
%TO.N,N/C*%
X154650000Y-43120000D03*
%TO.P,J1,A3*%
X154150000Y-43120000D03*
%TO.P,J1,A4,VBUS*%
%TO.N,VBUS*%
X153650000Y-43120000D03*
%TO.P,J1,A5,CC1*%
%TO.N,/CC1*%
X153150000Y-43120000D03*
%TO.P,J1,A6,D+*%
%TO.N,Net-(J1-PadA6)*%
X152650000Y-43120000D03*
%TO.P,J1,A7,D-*%
%TO.N,Net-(J1-PadA7)*%
X152150000Y-43120000D03*
%TO.P,J1,A12,GND*%
%TO.N,GND*%
X149650000Y-43120000D03*
%TO.P,J1,A10*%
%TO.N,N/C*%
X150650000Y-43120000D03*
%TO.P,J1,A9,VBUS*%
%TO.N,VBUS*%
X151150000Y-43120000D03*
%TO.P,J1,A8,SBU1*%
%TO.N,unconnected-(J1-PadA8)*%
X151650000Y-43120000D03*
%TO.P,J1,A11*%
%TO.N,N/C*%
X150150000Y-43120000D03*
D27*
%TO.P,J1,S1,SHIELD*%
%TO.N,unconnected-(J1-PadS1)*%
X148270000Y-41210000D03*
X147910000Y-35260000D03*
X156890000Y-35260000D03*
D29*
%TO.P,J1,B1,GND*%
%TO.N,GND*%
X149600000Y-41810000D03*
%TO.P,J1,B4,VBUS*%
%TO.N,VBUS*%
X151200000Y-41810000D03*
%TO.P,J1,B6,D+*%
%TO.N,Net-(J1-PadA6)*%
X152000000Y-41810000D03*
%TO.P,J1,B7,D-*%
%TO.N,Net-(J1-PadA7)*%
X152800000Y-41810000D03*
%TO.P,J1,B9,VBUS*%
%TO.N,VBUS*%
X153600000Y-41810000D03*
%TO.P,J1,B12,GND*%
%TO.N,GND*%
X155200000Y-41810000D03*
%TO.P,J1,B2*%
%TO.N,N/C*%
X150000000Y-41110000D03*
%TO.P,J1,B3*%
X150800000Y-41110000D03*
%TO.P,J1,B5,CC2*%
%TO.N,/CC2*%
X151600000Y-41110000D03*
%TO.P,J1,B8,SBU2*%
%TO.N,unconnected-(J1-PadB8)*%
X153200000Y-41110000D03*
%TO.P,J1,B10*%
%TO.N,N/C*%
X154000000Y-41110000D03*
%TO.P,J1,B11*%
X154800000Y-41110000D03*
%TD*%
D24*
%TO.P,D4,1,K*%
%TO.N,VBUS*%
X114300000Y-76987500D03*
%TO.P,D4,2,A*%
%TO.N,VBAT*%
X114300000Y-75112500D03*
%TD*%
%TO.P,CHG1,1,K*%
%TO.N,Net-(CHG1-Pad1)*%
X142810000Y-38887500D03*
%TO.P,CHG1,2,A*%
%TO.N,VBUS*%
X142810000Y-37012500D03*
%TD*%
D30*
%TO.P,C14,1*%
%TO.N,/AREF*%
X100887500Y-76200000D03*
%TO.P,C14,2*%
%TO.N,GND*%
X102312500Y-76200000D03*
%TD*%
%TO.P,C9,1*%
%TO.N,+3V3*%
X126287500Y-76200000D03*
%TO.P,C9,2*%
%TO.N,GND*%
X127712500Y-76200000D03*
%TD*%
%TO.P,C8,1*%
%TO.N,+3V3*%
X113587500Y-88900000D03*
%TO.P,C8,2*%
%TO.N,GND*%
X115012500Y-88900000D03*
%TD*%
D31*
%TO.P,C7,1*%
%TO.N,+3V3*%
X161002303Y-43475528D03*
%TO.P,C7,2*%
%TO.N,GND*%
X161002303Y-42050528D03*
%TD*%
D30*
%TO.P,C6,1*%
%TO.N,VBUS*%
X126287500Y-88900000D03*
%TO.P,C6,2*%
%TO.N,GND*%
X127712500Y-88900000D03*
%TD*%
%TO.P,C3,1*%
%TO.N,VBAT*%
X177087500Y-88560000D03*
%TO.P,C3,2*%
%TO.N,GND*%
X178512500Y-88560000D03*
%TD*%
%TO.P,C1,1*%
%TO.N,+3V3*%
X113587500Y-101600000D03*
%TO.P,C1,2*%
%TO.N,GND*%
X115012500Y-101600000D03*
%TD*%
M02*
