%TF.GenerationSoftware,KiCad,Pcbnew,6.0.11-2627ca5db0~126~ubuntu20.04.1*%
%TF.CreationDate,2023-02-12T02:05:53+01:00*%
%TF.ProjectId,HeadTracker_LoRa,48656164-5472-4616-936b-65725f4c6f52,rev?*%
%TF.SameCoordinates,Original*%
%TF.FileFunction,Soldermask,Bot*%
%TF.FilePolarity,Negative*%
%FSLAX46Y46*%
G04 Gerber Fmt 4.6, Leading zero omitted, Abs format (unit mm)*
G04 Created by KiCad (PCBNEW 6.0.11-2627ca5db0~126~ubuntu20.04.1) date 2023-02-12 02:05:53*
%MOMM*%
%LPD*%
G01*
G04 APERTURE LIST*
%ADD10C,3.000000*%
%ADD11R,1.700000X1.700000*%
%ADD12O,1.700000X1.700000*%
%ADD13O,0.800000X1.400000*%
%ADD14O,0.950000X0.650000*%
%ADD15C,0.650000*%
G04 APERTURE END LIST*
D10*
%TO.C,U$31*%
X177800000Y-38100000D03*
%TD*%
%TO.C,U$3*%
X203225000Y-165100000D03*
%TD*%
%TO.C,U$2*%
X127000000Y-38100000D03*
%TD*%
%TO.C,U$1*%
X114300000Y-165100000D03*
%TD*%
D11*
%TO.C,JP3*%
X165528684Y-109299404D03*
D12*
X165528684Y-111839404D03*
X165528684Y-114379404D03*
X165528684Y-116919404D03*
X165528684Y-119459404D03*
X165528684Y-121999404D03*
X165528684Y-124539404D03*
X165528684Y-127079404D03*
X165528684Y-129619404D03*
X165528684Y-132159404D03*
X165528684Y-134699404D03*
X165528684Y-137239404D03*
%TD*%
D11*
%TO.C,JP2*%
X136200497Y-109250000D03*
D12*
X136200497Y-111790000D03*
X136200497Y-114330000D03*
X136200497Y-116870000D03*
X136200497Y-119410000D03*
X136200497Y-121950000D03*
X136200497Y-124490000D03*
X136200497Y-127030000D03*
X136200497Y-129570000D03*
X136200497Y-132110000D03*
X136200497Y-134650000D03*
X136200497Y-137190000D03*
X136200497Y-139730000D03*
X136200497Y-142270000D03*
X136200497Y-144810000D03*
X136200497Y-147350000D03*
%TD*%
D13*
%TO.C,J1*%
X156530000Y-41210000D03*
X148270000Y-41210000D03*
X147910000Y-35260000D03*
X156890000Y-35260000D03*
D14*
X148800000Y-42460000D03*
D15*
X156000000Y-42460000D03*
X149600000Y-41810000D03*
X151200000Y-41810000D03*
X152000000Y-41810000D03*
X152800000Y-41810000D03*
X153600000Y-41810000D03*
X155200000Y-41810000D03*
X150000000Y-41110000D03*
X150800000Y-41110000D03*
X151600000Y-41110000D03*
X153200000Y-41110000D03*
X154000000Y-41110000D03*
X154800000Y-41110000D03*
%TD*%
M02*
